OxygenSans-Regular-kernagic.ufo
<glyph name="exclam" format="1">
  <advance width="586"></advance>
  <unicode hex="0021"></unicode>
  <outline>
    <contour>
      <point x="263" y="429" type="line"></point>
      <point x="329" y="429" type="line"></point>
      <point x="381" y="1335" type="line"></point>
      <point x="381" y="1457" type="line"></point>
      <point x="205" y="1457" type="line"></point>
      <point x="205" y="1335" type="line"></point>
    </contour>
    <contour>
      <point x="297" y="-13" type="curve" smooth="yes"></point>
      <point x="377" y="-13"></point>
      <point x="412" y="45"></point>
      <point x="412" y="105" type="curve" smooth="yes"></point>
      <point x="412" y="162"></point>
      <point x="377" y="222"></point>
      <point x="297" y="222" type="curve" smooth="yes"></point>
      <point x="217" y="222"></point>
      <point x="182" y="162"></point>
      <point x="182" y="105" type="curve" smooth="yes"></point>
      <point x="182" y="47"></point>
      <point x="217" y="-13"></point>
    </contour>
  </outline>
</glyph>
<glyph name="quotedbl" format="1">
  <advance width="746"/>
  <unicode hex="0022"/>
  <outline>
    <contour>
      <point x="198" y="843" type="line"/>
      <point x="273" y="843" type="line"/>
      <point x="336" y="1475" type="line"/>
      <point x="138" y="1475" type="line"/>
    </contour>
    <contour>
      <point x="467" y="843" type="line"/>
      <point x="543" y="843" type="line"/>
      <point x="612" y="1475" type="line"/>
      <point x="424" y="1475" type="line"/>
    </contour>
  </outline>
</glyph>
<glyph name="numbersign" format="1">
  <advance width="1156"></advance>
  <unicode hex="0023"></unicode>
  <outline>
    <contour>
      <point x="542" y="-20" type="line"></point>
      <point x="667" y="-20" type="line"></point>
      <point x="760" y="442" type="line"></point>
      <point x="968" y="442" type="line"></point>
      <point x="983" y="536" type="line"></point>
      <point x="780" y="536" type="line"></point>
      <point x="873" y="992" type="line"></point>
      <point x="1064" y="992" type="line"></point>
      <point x="1079" y="1085" type="line"></point>
      <point x="891" y="1085" type="line"></point>
      <point x="973" y="1497" type="line"></point>
      <point x="849" y="1497" type="line"></point>
      <point x="766" y="1085" type="line"></point>
      <point x="483" y="1085" type="line"></point>
      <point x="565" y="1497" type="line"></point>
      <point x="439" y="1497" type="line"></point>
      <point x="357" y="1085" type="line"></point>
      <point x="154" y="1085" type="line"></point>
      <point x="141" y="992" type="line"></point>
      <point x="338" y="992" type="line"></point>
      <point x="245" y="536" type="line"></point>
      <point x="58" y="536" type="line"></point>
      <point x="45" y="442" type="line"></point>
      <point x="227" y="442" type="line"></point>
      <point x="134" y="-20" type="line"></point>
      <point x="258" y="-20" type="line"></point>
      <point x="352" y="442" type="line"></point>
      <point x="634" y="442" type="line"></point>
    </contour>
    <contour>
      <point x="654" y="536" type="line"></point>
      <point x="370" y="536" type="line"></point>
      <point x="464" y="992" type="line"></point>
      <point x="747" y="992" type="line"></point>
    </contour>
  </outline>
</glyph>
<glyph name="dollar" format="1">
  <advance width="566"></advance>
  <unicode hex="0024"></unicode>
  <outline>
    <contour>
      <point x="182" y="-278" type="line"></point>
      <point x="318" y="-278" type="line"></point>
      <point x="356" y="61" type="line"></point>
      <point x="221" y="61" type="line"></point>
    </contour>
    <contour>
      <point x="366" y="1785" type="line"></point>
      <point x="236" y="1785" type="line"></point>
      <point x="198" y="1446" type="line"></point>
      <point x="329" y="1446" type="line"></point>
    </contour>
    <component base="S"></component>
  </outline>
</glyph>
<glyph name="percent" format="1">
  <advance width="1461"></advance>
  <unicode hex="0025"></unicode>
  <outline>
    <contour>
      <point x="185" y="0" type="line"></point>
      <point x="1014" y="1457" type="line"></point>
      <point x="1136" y="1457" type="line"></point>
      <point x="317" y="0" type="line"></point>
    </contour>
    <contour>
      <point x="289" y="714" type="curve" smooth="yes"></point>
      <point x="63" y="714"></point>
      <point x="-2" y="881"></point>
      <point x="-2" y="1096" type="curve" smooth="yes"></point>
      <point x="-2" y="1313"></point>
      <point x="67" y="1477"></point>
      <point x="289" y="1477" type="curve" smooth="yes"></point>
      <point x="516" y="1477"></point>
      <point x="589" y="1316"></point>
      <point x="589" y="1096" type="curve" smooth="yes"></point>
      <point x="589" y="881"></point>
      <point x="513" y="714"></point>
    </contour>
    <contour>
      <point x="290" y="810" type="curve" smooth="yes"></point>
      <point x="446" y="810"></point>
      <point x="473" y="936"></point>
      <point x="473" y="1097" type="curve" smooth="yes"></point>
      <point x="473" y="1264"></point>
      <point x="445" y="1381"></point>
      <point x="290" y="1381" type="curve" smooth="yes"></point>
      <point x="134" y="1381"></point>
      <point x="106" y="1258"></point>
      <point x="106" y="1097" type="curve" smooth="yes"></point>
      <point x="106" y="931"></point>
      <point x="134" y="810"></point>
    </contour>
    <contour>
      <point x="1035" y="94" type="curve" smooth="yes"></point>
      <point x="1191" y="94"></point>
      <point x="1218" y="221"></point>
      <point x="1218" y="382" type="curve" smooth="yes"></point>
      <point x="1218" y="549"></point>
      <point x="1190" y="666"></point>
      <point x="1035" y="666" type="curve" smooth="yes"></point>
      <point x="879" y="666"></point>
      <point x="851" y="543"></point>
      <point x="851" y="382" type="curve" smooth="yes"></point>
      <point x="851" y="216"></point>
      <point x="879" y="94"></point>
    </contour>
    <contour>
      <point x="1034" y="-1" type="curve" smooth="yes"></point>
      <point x="808" y="-1"></point>
      <point x="735" y="166"></point>
      <point x="735" y="381" type="curve" smooth="yes"></point>
      <point x="735" y="598"></point>
      <point x="812" y="763"></point>
      <point x="1034" y="763" type="curve" smooth="yes"></point>
      <point x="1261" y="763"></point>
      <point x="1334" y="601"></point>
      <point x="1334" y="381" type="curve" smooth="yes"></point>
      <point x="1334" y="166"></point>
      <point x="1258" y="-1"></point>
    </contour>
  </outline>
</glyph>
<glyph name="ampersand" format="1">
  <advance width="1329"></advance>
  <unicode hex="0026"></unicode>
  <outline>
    <contour>
      <point x="912" y="1194" type="curve" smooth="yes"></point>
      <point x="912" y="1396"></point>
      <point x="769" y="1496"></point>
      <point x="567" y="1496" type="curve" smooth="yes"></point>
      <point x="345" y="1496"></point>
      <point x="186" y="1368"></point>
      <point x="186" y="1176" type="curve" smooth="yes"></point>
      <point x="186" y="1054"></point>
      <point x="238" y="948"></point>
      <point x="333" y="840" type="curve" smooth="yes"></point>
      <point x="360" y="810" type="line"></point>
      <point x="203" y="720"></point>
      <point x="61" y="603"></point>
      <point x="61" y="362" type="curve" smooth="yes"></point>
      <point x="61" y="160"></point>
      <point x="267" y="-20"></point>
      <point x="529" y="-20" type="curve" smooth="yes"></point>
      <point x="662" y="-20"></point>
      <point x="809" y="27"></point>
      <point x="951" y="138" type="curve"></point>
      <point x="1104" y="-36" type="line"></point>
      <point x="1220" y="62" type="line"></point>
      <point x="1061" y="240" type="line"></point>
      <point x="1128" y="311"></point>
      <point x="1191" y="400"></point>
      <point x="1251" y="506" type="curve"></point>
      <point x="1137" y="583" type="line"></point>
      <point x="1084" y="486"></point>
      <point x="1027" y="406"></point>
      <point x="969" y="341" type="curve"></point>
      <point x="568" y="787" type="line"></point>
      <point x="740" y="881"></point>
      <point x="912" y="976"></point>
    </contour>
    <contour>
      <point x="487" y="877" type="curve"></point>
      <point x="465" y="902" type="line" smooth="yes"></point>
      <point x="371" y="1006"></point>
      <point x="333" y="1093"></point>
      <point x="333" y="1187" type="curve" smooth="yes"></point>
      <point x="333" y="1305"></point>
      <point x="444" y="1374"></point>
      <point x="569" y="1374" type="curve" smooth="yes"></point>
      <point x="698" y="1374"></point>
      <point x="763" y="1309"></point>
      <point x="763" y="1189" type="curve" smooth="yes"></point>
      <point x="763" y="1032"></point>
      <point x="634" y="955"></point>
    </contour>
    <contour>
      <point x="861" y="240" type="line"></point>
      <point x="748" y="153"></point>
      <point x="635" y="116"></point>
      <point x="535" y="116" type="curve" smooth="yes"></point>
      <point x="355" y="116"></point>
      <point x="221" y="233"></point>
      <point x="221" y="378" type="curve" smooth="yes"></point>
      <point x="221" y="544"></point>
      <point x="320" y="638"></point>
      <point x="443" y="715" type="curve"></point>
    </contour>
  </outline>
</glyph>
<glyph name="parenleft" format="1">
  <advance width="809"></advance>
  <unicode hex="0028"></unicode>
  <outline>
    <contour>
      <point x="451" y="-229" type="curve"></point>
      <point x="605" y="-229" type="line"></point>
      <point x="421" y="67"></point>
      <point x="353" y="389"></point>
      <point x="353" y="714" type="curve" smooth="yes"></point>
      <point x="353" y="1024"></point>
      <point x="428" y="1311"></point>
      <point x="606" y="1590" type="curve"></point>
      <point x="449" y="1590" type="line"></point>
      <point x="285" y="1345"></point>
      <point x="191" y="1040"></point>
      <point x="191" y="710" type="curve" smooth="yes"></point>
      <point x="191" y="349"></point>
      <point x="287" y="5"></point>
    </contour>
  </outline>
</glyph>
<glyph name="parenright" format="1">
  <advance width="693"/>
  <unicode hex="0029"/>
  <outline>
    <contour>
      <point x="113" y="-229" type="curve"/>
      <point x="268" y="-229" type="line"/>
      <point x="428" y="-4"/>
      <point x="527" y="354"/>
      <point x="527" y="716" type="curve" smooth="yes"/>
      <point x="527" y="1045"/>
      <point x="437" y="1337"/>
      <point x="269" y="1590" type="curve"/>
      <point x="112" y="1590" type="line"/>
      <point x="300" y="1284"/>
      <point x="365" y="1021"/>
      <point x="365" y="718" type="curve" smooth="yes"/>
      <point x="365" y="386"/>
      <point x="286" y="41"/>
    </contour>
  </outline>
</glyph>
<glyph name="asterisk" format="1">
  <advance width="925"></advance>
  <unicode hex="002A"></unicode>
  <outline>
    <contour>
      <point x="304" y="599" type="line"></point>
      <point x="174" y="681" type="line"></point>
      <point x="405" y="991" type="line"></point>
      <point x="64" y="1068" type="line"></point>
      <point x="106" y="1215" type="line"></point>
      <point x="442" y="1075" type="line"></point>
      <point x="408" y="1456" type="line"></point>
      <point x="568" y="1456" type="line"></point>
      <point x="532" y="1075" type="line"></point>
      <point x="870" y="1215" type="line"></point>
      <point x="912" y="1068" type="line"></point>
      <point x="567" y="991" type="line"></point>
      <point x="605" y="940"></point>
      <point x="711" y="798"></point>
      <point x="804" y="681" type="curve"></point>
      <point x="747" y="645"></point>
      <point x="732" y="635"></point>
      <point x="675" y="599" type="curve"></point>
      <point x="483" y="937" type="line"></point>
    </contour>
  </outline>
</glyph>
<glyph name="plus" format="1">
  <advance width="1076"></advance>
  <unicode hex="002B"></unicode>
  <outline>
    <contour>
      <point x="457" y="227" type="line"></point>
      <point x="629" y="227" type="line"></point>
      <point x="629" y="611" type="line"></point>
      <point x="982" y="611" type="line"></point>
      <point x="982" y="777" type="line"></point>
      <point x="629" y="777" type="line"></point>
      <point x="629" y="1156" type="line"></point>
      <point x="458" y="1156" type="line"></point>
      <point x="458" y="777" type="line"></point>
      <point x="99" y="777" type="line"></point>
      <point x="99" y="611" type="line"></point>
      <point x="457" y="611" type="line"></point>
    </contour>
  </outline>
</glyph>
<glyph name="period" format="1">
  <advance width="599"></advance>
  <unicode hex="002E"></unicode>
  <outline>
    <contour>
      <point x="303" y="-11" type="curve" smooth="yes"></point>
      <point x="381" y="-11"></point>
      <point x="415" y="47"></point>
      <point x="415" y="106" type="curve" smooth="yes"></point>
      <point x="415" y="163"></point>
      <point x="381" y="223"></point>
      <point x="303" y="223" type="curve" smooth="yes"></point>
      <point x="224" y="223"></point>
      <point x="188" y="163"></point>
      <point x="188" y="106" type="curve" smooth="yes"></point>
      <point x="188" y="47"></point>
      <point x="225" y="-11"></point>
    </contour>
    <contour>
      <point x="296" y="102.775" type="move" name="_mid"></point>
    </contour>
  </outline>
</glyph>
<glyph name="zero" format="1">
  <advance width="1226"/>
  <unicode hex="0030"/>
  <outline>
    <contour>
      <point x="612" y="-20" type="curve" smooth="yes"/>
      <point x="955" y="-20"/>
      <point x="1095" y="259"/>
      <point x="1095" y="703" type="curve" smooth="yes"/>
      <point x="1095" y="1170"/>
      <point x="939" y="1476"/>
      <point x="612" y="1476" type="curve" smooth="yes"/>
      <point x="285" y="1476"/>
      <point x="119" y="1169"/>
      <point x="119" y="703" type="curve" smooth="yes"/>
      <point x="119" y="259"/>
      <point x="269" y="-20"/>
    </contour>
    <contour>
      <point x="612" y="123" type="curve" smooth="yes"/>
      <point x="410" y="123"/>
      <point x="284" y="282"/>
      <point x="284" y="708" type="curve"/>
      <point x="283" y="1114"/>
      <point x="410" y="1334"/>
      <point x="612" y="1334" type="curve" smooth="yes"/>
      <point x="814" y="1334"/>
      <point x="930" y="1143"/>
      <point x="930" y="709" type="curve" smooth="yes"/>
      <point x="930" y="283"/>
      <point x="814" y="123"/>
    </contour>
  </outline>
</glyph>
<glyph name="one" format="1">
  <advance width="1036"></advance>
  <unicode hex="0031"></unicode>
  <outline>
    <contour>
      <point x="86" y="0" type="line"></point>
      <point x="918" y="0" type="line"></point>
      <point x="918" y="123" type="line"></point>
      <point x="604" y="123" type="line"></point>
      <point x="604" y="1456" type="line"></point>
      <point x="451" y="1456" type="line"></point>
      <point x="375" y="1402"></point>
      <point x="200" y="1347"></point>
      <point x="117" y="1329" type="curve"></point>
      <point x="117" y="1194" type="line"></point>
      <point x="200" y="1205"></point>
      <point x="349" y="1249"></point>
      <point x="438" y="1301" type="curve"></point>
      <point x="438" y="123" type="line"></point>
      <point x="86" y="123" type="line"></point>
    </contour>
  </outline>
</glyph>
<glyph name="two" format="1">
  <advance width="1055"></advance>
  <unicode hex="0032"></unicode>
  <outline>
    <contour>
      <point x="78" y="0" type="line"></point>
      <point x="996" y="0" type="line"></point>
      <point x="1005" y="123" type="line"></point>
      <point x="239" y="123" type="line"></point>
      <point x="690" y="573" type="line" smooth="yes"></point>
      <point x="887" y="759"></point>
      <point x="962" y="865"></point>
      <point x="962" y="1074" type="curve" smooth="yes"></point>
      <point x="962" y="1385"></point>
      <point x="702" y="1477"></point>
      <point x="518" y="1477" type="curve" smooth="yes"></point>
      <point x="252" y="1477"></point>
      <point x="142" y="1355"></point>
      <point x="88" y="1260" type="curve"></point>
      <point x="184" y="1160" type="line"></point>
      <point x="243" y="1249"></point>
      <point x="335" y="1334"></point>
      <point x="518" y="1334" type="curve" smooth="yes"></point>
      <point x="633" y="1334"></point>
      <point x="800" y="1284"></point>
      <point x="800" y="1058" type="curve" smooth="yes"></point>
      <point x="800" y="890"></point>
      <point x="726" y="826"></point>
      <point x="582" y="684" type="curve" smooth="yes"></point>
      <point x="52" y="134" type="line"></point>
    </contour>
  </outline>
</glyph>
<glyph name="three" format="1">
  <advance width="1066"/>
  <unicode hex="0033"/>
  <outline>
    <contour>
      <point x="541" y="-21" type="curve" smooth="yes"/>
      <point x="784" y="-21"/>
      <point x="978" y="123"/>
      <point x="982" y="412" type="curve"/>
      <point x="982" y="419" type="line" smooth="yes"/>
      <point x="982" y="630"/>
      <point x="853" y="731"/>
      <point x="677" y="769" type="curve"/>
      <point x="840" y="812"/>
      <point x="943" y="901"/>
      <point x="943" y="1095" type="curve" smooth="yes"/>
      <point x="943" y="1101" type="line"/>
      <point x="940" y="1354"/>
      <point x="743" y="1477"/>
      <point x="514" y="1477" type="curve" smooth="yes"/>
      <point x="389" y="1477"/>
      <point x="172" y="1429"/>
      <point x="74" y="1219" type="curve"/>
      <point x="186" y="1143" type="line"/>
      <point x="271" y="1304"/>
      <point x="407" y="1335"/>
      <point x="509" y="1335" type="curve" smooth="yes"/>
      <point x="654" y="1335"/>
      <point x="768" y="1264"/>
      <point x="771" y="1090" type="curve"/>
      <point x="771" y="1083" type="line" smooth="yes"/>
      <point x="771" y="863"/>
      <point x="585" y="833"/>
      <point x="417" y="833" type="curve" smooth="yes"/>
      <point x="374" y="833" type="line"/>
      <point x="374" y="696" type="line"/>
      <point x="416" y="696" type="line" smooth="yes"/>
      <point x="640" y="696"/>
      <point x="808" y="673"/>
      <point x="808" y="412" type="curve" smooth="yes"/>
      <point x="808" y="223"/>
      <point x="704" y="125"/>
      <point x="536" y="125" type="curve" smooth="yes"/>
      <point x="450" y="125"/>
      <point x="301" y="140"/>
      <point x="215" y="297" type="curve"/>
      <point x="98" y="216" type="line"/>
      <point x="189" y="24"/>
      <point x="423" y="-21"/>
    </contour>
  </outline>
</glyph>
<glyph name="four" format="1">
  <advance width="1081"></advance>
  <unicode hex="0034"></unicode>
  <outline>
    <contour>
      <point x="200" y="513" type="line"></point>
      <point x="730" y="1245" type="line"></point>
      <point x="730" y="513" type="line"></point>
    </contour>
    <contour>
      <point x="730" y="0" type="line"></point>
      <point x="888" y="0" type="line"></point>
      <point x="888" y="377" type="line"></point>
      <point x="1075" y="377" type="line"></point>
      <point x="1087" y="513" type="line"></point>
      <point x="888" y="513" type="line"></point>
      <point x="888" y="1456" type="line"></point>
      <point x="719" y="1456" type="line"></point>
      <point x="35" y="525" type="line"></point>
      <point x="55" y="377" type="line"></point>
      <point x="730" y="377" type="line"></point>
    </contour>
  </outline>
</glyph>
<glyph name="five" format="1">
  <advance width="1036"></advance>
  <unicode hex="0035"></unicode>
  <outline>
    <contour>
      <point x="517" y="-20" type="curve" smooth="yes"></point>
      <point x="790" y="-20"></point>
      <point x="990" y="147"></point>
      <point x="990" y="476" type="curve" smooth="yes"></point>
      <point x="990" y="724"></point>
      <point x="838" y="947"></point>
      <point x="556" y="947" type="curve" smooth="yes"></point>
      <point x="446" y="947"></point>
      <point x="352" y="894"></point>
      <point x="278" y="842" type="curve"></point>
      <point x="294" y="1321" type="line"></point>
      <point x="908" y="1321" type="line"></point>
      <point x="921" y="1456" type="line"></point>
      <point x="153" y="1456" type="line"></point>
      <point x="125" y="696" type="line"></point>
      <point x="259" y="679" type="line"></point>
      <point x="321" y="747"></point>
      <point x="432" y="813"></point>
      <point x="530" y="813" type="curve" smooth="yes"></point>
      <point x="740" y="813"></point>
      <point x="821" y="648"></point>
      <point x="821" y="473" type="curve" smooth="yes"></point>
      <point x="821" y="247"></point>
      <point x="712" y="124"></point>
      <point x="517" y="124" type="curve" smooth="yes"></point>
      <point x="341" y="124"></point>
      <point x="231" y="224"></point>
      <point x="174" y="366" type="curve"></point>
      <point x="48" y="274" type="line"></point>
      <point x="127" y="122"></point>
      <point x="259" y="-20"></point>
    </contour>
  </outline>
</glyph>
<glyph name="six" format="1">
  <advance width="1116"></advance>
  <unicode hex="0036"></unicode>
  <outline>
    <contour>
      <point x="530" y="114" type="curve" smooth="yes"></point>
      <point x="327" y="114"></point>
      <point x="219" y="266"></point>
      <point x="219" y="438" type="curve" smooth="yes"></point>
      <point x="219" y="681"></point>
      <point x="406" y="759"></point>
      <point x="536" y="759" type="curve" smooth="yes"></point>
      <point x="732" y="759"></point>
      <point x="842" y="625"></point>
      <point x="842" y="444" type="curve" smooth="yes"></point>
      <point x="842" y="270"></point>
      <point x="733" y="114"></point>
    </contour>
    <contour>
      <point x="534" y="-20" type="curve" smooth="yes"></point>
      <point x="821" y="-20"></point>
      <point x="1003" y="188"></point>
      <point x="1003" y="445" type="curve" smooth="yes"></point>
      <point x="1003" y="711"></point>
      <point x="826" y="891"></point>
      <point x="594" y="891" type="curve" smooth="yes"></point>
      <point x="481" y="891"></point>
      <point x="344" y="833"></point>
      <point x="277" y="753" type="curve"></point>
      <point x="308" y="774" type="line"></point>
      <point x="457" y="984" type="line" smooth="yes"></point>
      <point x="803" y="1456" type="line"></point>
      <point x="614" y="1456" type="line"></point>
      <point x="279" y="1001" type="line" smooth="yes"></point>
      <point x="140" y="812"></point>
      <point x="60" y="667"></point>
      <point x="60" y="448" type="curve" smooth="yes"></point>
      <point x="60" y="204"></point>
      <point x="232" y="-20"></point>
    </contour>
  </outline>
</glyph>
<glyph name="seven" format="1">
  <advance width="1196"></advance>
  <unicode hex="0037"></unicode>
  <outline>
    <contour>
      <point x="520" y="0" type="line"></point>
      <point x="686" y="0" type="line"></point>
      <point x="1198" y="1336" type="line"></point>
      <point x="1198" y="1456" type="line"></point>
      <point x="213" y="1456" type="line"></point>
      <point x="232" y="1319" type="line"></point>
      <point x="1024" y="1319" type="line"></point>
    </contour>
  </outline>
</glyph>
<glyph name="eight" format="1">
  <advance width="1156"></advance>
  <unicode hex="0038"></unicode>
  <outline>
    <contour>
      <point x="593" y="818" type="curve"></point>
      <point x="408" y="860"></point>
      <point x="312" y="960"></point>
      <point x="312" y="1120" type="curve" smooth="yes"></point>
      <point x="312" y="1265"></point>
      <point x="425" y="1350"></point>
      <point x="593" y="1350" type="curve" smooth="yes"></point>
      <point x="762" y="1350"></point>
      <point x="872" y="1265"></point>
      <point x="872" y="1120" type="curve" smooth="yes"></point>
      <point x="872" y="960"></point>
      <point x="780" y="860"></point>
    </contour>
    <contour>
      <point x="593" y="111" type="curve" smooth="yes"></point>
      <point x="386" y="111"></point>
      <point x="276" y="204"></point>
      <point x="276" y="379" type="curve" smooth="yes"></point>
      <point x="276" y="558"></point>
      <point x="413" y="658"></point>
      <point x="593" y="698" type="curve"></point>
      <point x="774" y="658"></point>
      <point x="907" y="552"></point>
      <point x="907" y="380" type="curve" smooth="yes"></point>
      <point x="907" y="198"></point>
      <point x="806" y="111"></point>
    </contour>
    <contour>
      <point x="593" y="-20" type="curve" smooth="yes"></point>
      <point x="851" y="-20"></point>
      <point x="1064" y="104"></point>
      <point x="1064" y="364" type="curve" smooth="yes"></point>
      <point x="1064" y="554"></point>
      <point x="945" y="704"></point>
      <point x="762" y="765" type="curve"></point>
      <point x="922" y="824"></point>
      <point x="1032" y="934"></point>
      <point x="1032" y="1115" type="curve" smooth="yes"></point>
      <point x="1032" y="1348"></point>
      <point x="850" y="1476"></point>
      <point x="594" y="1476" type="curve" smooth="yes"></point>
      <point x="338" y="1476"></point>
      <point x="152" y="1348"></point>
      <point x="152" y="1115" type="curve" smooth="yes"></point>
      <point x="152" y="934"></point>
      <point x="272" y="815"></point>
      <point x="427" y="763" type="curve"></point>
      <point x="235" y="695"></point>
      <point x="121" y="569"></point>
      <point x="121" y="364" type="curve" smooth="yes"></point>
      <point x="121" y="104"></point>
      <point x="337" y="-20"></point>
    </contour>
  </outline>
</glyph>
<glyph name="nine" format="1">
  <advance width="1128"></advance>
  <unicode hex="0039"></unicode>
  <outline>
    <contour>
      <point x="561" y="697" type="curve" smooth="yes"></point>
      <point x="365" y="697"></point>
      <point x="248" y="836"></point>
      <point x="248" y="1018" type="curve" smooth="yes"></point>
      <point x="248" y="1192"></point>
      <point x="366" y="1343"></point>
      <point x="569" y="1343" type="curve" smooth="yes"></point>
      <point x="772" y="1343"></point>
      <point x="884" y="1191"></point>
      <point x="884" y="1019" type="curve" smooth="yes"></point>
      <point x="884" y="775"></point>
      <point x="691" y="697"></point>
    </contour>
    <contour>
      <point x="257" y="0" type="line"></point>
      <point x="453" y="0" type="line"></point>
      <point x="810" y="460" type="line" smooth="yes"></point>
      <point x="943" y="647"></point>
      <point x="1042" y="790"></point>
      <point x="1042" y="1008" type="curve" smooth="yes"></point>
      <point x="1042" y="1252"></point>
      <point x="866" y="1477"></point>
      <point x="564" y="1477" type="curve" smooth="yes"></point>
      <point x="277" y="1477"></point>
      <point x="86" y="1274"></point>
      <point x="86" y="1016" type="curve" smooth="yes"></point>
      <point x="86" y="749"></point>
      <point x="300" y="565"></point>
      <point x="532" y="565" type="curve" smooth="yes"></point>
      <point x="609" y="565"></point>
      <point x="684" y="586"></point>
      <point x="738" y="616" type="curve"></point>
      <point x="702" y="569"></point>
      <point x="665" y="521"></point>
      <point x="636" y="481" type="curve" smooth="yes"></point>
    </contour>
  </outline>
</glyph>
<glyph name="colon" format="1">
  <advance width="693"></advance>
  <unicode hex="003A"></unicode>
  <outline>
    <contour>
      <point x="338" y="-10" type="curve" smooth="yes"></point>
      <point x="420" y="-10"></point>
      <point x="455" y="50"></point>
      <point x="455" y="112" type="curve" smooth="yes"></point>
      <point x="455" y="172"></point>
      <point x="420" y="235"></point>
      <point x="338" y="235" type="curve" smooth="yes"></point>
      <point x="255" y="235"></point>
      <point x="217" y="172"></point>
      <point x="217" y="112" type="curve" smooth="yes"></point>
      <point x="217" y="50"></point>
      <point x="256" y="-10"></point>
    </contour>
    <contour>
      <point x="338" y="838" type="curve" smooth="yes"></point>
      <point x="420" y="838"></point>
      <point x="455" y="898"></point>
      <point x="455" y="960" type="curve" smooth="yes"></point>
      <point x="455" y="1020"></point>
      <point x="420" y="1083"></point>
      <point x="338" y="1083" type="curve" smooth="yes"></point>
      <point x="255" y="1083"></point>
      <point x="217" y="1020"></point>
      <point x="217" y="960" type="curve" smooth="yes"></point>
      <point x="217" y="898"></point>
      <point x="256" y="838"></point>
    </contour>
  </outline>
</glyph>
<glyph name="semicolon" format="1">
  <advance width="575"></advance>
  <unicode hex="003B"></unicode>
  <outline>
    <contour>
      <point x="300" y="847" type="curve" smooth="yes"></point>
      <point x="382" y="847"></point>
      <point x="417" y="907"></point>
      <point x="417" y="969" type="curve" smooth="yes"></point>
      <point x="417" y="1029"></point>
      <point x="382" y="1092"></point>
      <point x="300" y="1092" type="curve" smooth="yes"></point>
      <point x="217" y="1092"></point>
      <point x="179" y="1029"></point>
      <point x="179" y="969" type="curve" smooth="yes"></point>
      <point x="179" y="907"></point>
      <point x="218" y="847"></point>
    </contour>
    <contour>
      <point x="179" y="-300" type="line"></point>
      <point x="276" y="-300" type="line"></point>
      <point x="393" y="152" type="line"></point>
      <point x="393" y="235" type="line"></point>
      <point x="220" y="235" type="line"></point>
    </contour>
  </outline>
</glyph>
<glyph name="less" format="1">
  <advance width="1023"></advance>
  <unicode hex="003C"></unicode>
  <outline>
    <contour>
      <point x="963" y="135" type="line"></point>
      <point x="964" y="280" type="line"></point>
      <point x="221" y="640" type="line"></point>
      <point x="966" y="1026" type="line"></point>
      <point x="966" y="1169" type="line"></point>
      <point x="36" y="680" type="line"></point>
      <point x="36" y="591" type="line"></point>
    </contour>
  </outline>
</glyph>
<glyph name="greater" format="1">
  <advance width="1036"></advance>
  <unicode hex="003E"></unicode>
  <outline>
    <contour>
      <point x="54" y="141" type="line"></point>
      <point x="984" y="589" type="line"></point>
      <point x="984" y="679" type="line"></point>
      <point x="56" y="1175" type="line"></point>
      <point x="56" y="1032" type="line"></point>
      <point x="791" y="640" type="line"></point>
      <point x="54" y="286" type="line"></point>
    </contour>
  </outline>
</glyph>
<glyph name="question" format="1">
  <advance width="799"></advance>
  <unicode hex="003F"></unicode>
  <outline>
    <contour>
      <point x="329" y="-13" type="curve" smooth="yes"></point>
      <point x="408" y="-13"></point>
      <point x="443" y="41"></point>
      <point x="443" y="101" type="curve" smooth="yes"></point>
      <point x="443" y="158"></point>
      <point x="408" y="214"></point>
      <point x="329" y="214" type="curve" smooth="yes"></point>
      <point x="250" y="214"></point>
      <point x="214" y="158"></point>
      <point x="214" y="101" type="curve" smooth="yes"></point>
      <point x="214" y="43"></point>
      <point x="250" y="-13"></point>
    </contour>
    <contour>
      <point x="331" y="1343" type="curve" smooth="yes"></point>
      <point x="456" y="1343"></point>
      <point x="529" y="1273"></point>
      <point x="529" y="1127" type="curve" smooth="yes"></point>
      <point x="529" y="908"></point>
      <point x="280" y="731"></point>
      <point x="271" y="424" type="curve"></point>
      <point x="354" y="424" type="line"></point>
      <point x="453" y="788"></point>
      <point x="688" y="836"></point>
      <point x="688" y="1132" type="curve" smooth="yes"></point>
      <point x="688" y="1380"></point>
      <point x="528" y="1477"></point>
      <point x="349" y="1477" type="curve" smooth="yes"></point>
      <point x="225" y="1477"></point>
      <point x="128" y="1437"></point>
      <point x="55" y="1382" type="curve"></point>
      <point x="88" y="1256" type="line"></point>
      <point x="130" y="1285"></point>
      <point x="225" y="1343"></point>
    </contour>
  </outline>
</glyph>
<glyph name="at" format="1">
  <advance width="1850"></advance>
  <unicode hex="0040"></unicode>
  <outline>
    <contour>
      <point x="874" y="377" type="curve" smooth="yes"></point>
      <point x="766" y="377"></point>
      <point x="705" y="471"></point>
      <point x="705" y="613" type="curve" smooth="yes"></point>
      <point x="705" y="815"></point>
      <point x="824" y="1017"></point>
      <point x="1011" y="1017" type="curve" smooth="yes"></point>
      <point x="1047" y="1017"></point>
      <point x="1104" y="1009"></point>
      <point x="1149" y="999" type="curve"></point>
      <point x="1135" y="912"></point>
      <point x="1108" y="753"></point>
      <point x="1106" y="739" type="curve" smooth="yes"></point>
      <point x="1074" y="538"></point>
      <point x="1026" y="377"></point>
    </contour>
    <contour>
      <point x="921" y="-151" type="curve" smooth="yes"></point>
      <point x="1112" y="-151"></point>
      <point x="1305" y="-102"></point>
      <point x="1433" y="-14" type="curve"></point>
      <point x="1391" y="89" type="line"></point>
      <point x="1256" y="3"></point>
      <point x="1088" y="-28"></point>
      <point x="924" y="-28" type="curve" smooth="yes"></point>
      <point x="504" y="-28"></point>
      <point x="272" y="249"></point>
      <point x="272" y="654" type="curve" smooth="yes"></point>
      <point x="272" y="1079"></point>
      <point x="546" y="1408"></point>
      <point x="981" y="1408" type="curve" smooth="yes"></point>
      <point x="1409" y="1408"></point>
      <point x="1618" y="1143"></point>
      <point x="1618" y="803" type="curve" smooth="yes"></point>
      <point x="1618" y="528"></point>
      <point x="1493" y="387"></point>
      <point x="1376" y="387" type="curve" smooth="yes"></point>
      <point x="1301" y="387"></point>
      <point x="1243" y="448"></point>
      <point x="1243" y="531" type="curve" smooth="yes"></point>
      <point x="1243" y="657"></point>
      <point x="1280" y="844"></point>
      <point x="1308" y="1049" type="curve"></point>
      <point x="1222" y="1093"></point>
      <point x="1091" y="1122"></point>
      <point x="995" y="1122" type="curve" smooth="yes"></point>
      <point x="711" y="1122"></point>
      <point x="561" y="866"></point>
      <point x="561" y="616" type="curve" smooth="yes"></point>
      <point x="561" y="417"></point>
      <point x="669" y="262"></point>
      <point x="857" y="262" type="curve" smooth="yes"></point>
      <point x="998" y="262"></point>
      <point x="1090" y="372"></point>
      <point x="1139" y="480" type="curve"></point>
      <point x="1169" y="349"></point>
      <point x="1246" y="266"></point>
      <point x="1376" y="266" type="curve" smooth="yes"></point>
      <point x="1547" y="266"></point>
      <point x="1745" y="445"></point>
      <point x="1745" y="795" type="curve" smooth="yes"></point>
      <point x="1745" y="1244"></point>
      <point x="1417" y="1527"></point>
      <point x="988" y="1527" type="curve" smooth="yes"></point>
      <point x="491" y="1527"></point>
      <point x="128" y="1158"></point>
      <point x="128" y="658" type="curve" smooth="yes"></point>
      <point x="128" y="156"></point>
      <point x="452" y="-151"></point>
    </contour>
  </outline>
</glyph>
<glyph name="A" format="1">
  <advance width="1196"></advance>
  <unicode hex="0041"></unicode>
  <outline>
    <contour>
      <point x="-28" y="0" type="line"></point>
      <point x="149" y="0" type="line"></point>
      <point x="340" y="513" type="line"></point>
      <point x="278" y="462" type="line"></point>
      <point x="958" y="462" type="line"></point>
      <point x="891" y="508" type="line"></point>
      <point x="1081" y="0" type="line"></point>
      <point x="1255" y="0" type="line"></point>
      <point x="698" y="1456" type="line"></point>
      <point x="527" y="1456" type="line"></point>
    </contour>
    <contour>
      <point x="345" y="543" type="line"></point>
      <point x="639" y="1350" type="line"></point>
      <point x="587" y="1350" type="line"></point>
      <point x="887" y="535" type="line"></point>
      <point x="927" y="587" type="line"></point>
      <point x="312" y="587" type="line"></point>
    </contour>
    <contour>
      <point x="613" y="0.0" type="move" name="bot"></point>
    </contour>
    <contour>
      <point x="1149" y="0.0" type="move" name="ogonek"></point>
    </contour>
    <contour>
      <point x="611" y="1496.5" type="move" name="top"></point>
    </contour>
  </outline>
</glyph>
<glyph name="B" format="1">
  <advance width="1249"></advance>
  <unicode hex="0042"></unicode>
  <outline>
    <contour>
      <point x="144" y="12" type="line"></point>
      <point x="917" y="-38"></point>
      <point x="1158" y="48"></point>
      <point x="1163" y="423" type="curve" smooth="yes"></point>
      <point x="1166" y="623"></point>
      <point x="1092" y="779"></point>
      <point x="795" y="812" type="curve"></point>
      <point x="795" y="777" type="line"></point>
      <point x="1035" y="847"></point>
      <point x="1101" y="954"></point>
      <point x="1101" y="1099" type="curve" smooth="yes"></point>
      <point x="1101" y="1255"></point>
      <point x="1103" y="1543"></point>
      <point x="144" y="1436" type="curve"></point>
    </contour>
    <contour>
      <point x="280" y="143" type="curve"></point>
      <point x="320" y="98" type="line"></point>
      <point x="320" y="781" type="line"></point>
      <point x="261" y="728" type="line"></point>
      <point x="586" y="728" type="line" smooth="yes"></point>
      <point x="868" y="728"></point>
      <point x="987" y="633"></point>
      <point x="987" y="422" type="curve" smooth="yes"></point>
      <point x="987" y="235"></point>
      <point x="931" y="98"></point>
    </contour>
    <contour>
      <point x="264" y="854" type="line"></point>
      <point x="320" y="809" type="line"></point>
      <point x="320" y="1363" type="line"></point>
      <point x="280" y="1321" type="line"></point>
      <point x="836" y="1357"></point>
      <point x="944" y="1296"></point>
      <point x="944" y="1089" type="curve" smooth="yes"></point>
      <point x="944" y="886"></point>
      <point x="787" y="854"></point>
      <point x="597" y="854" type="curve" smooth="yes"></point>
    </contour>
    <contour>
      <point x="661" y="0.296939945458" type="move" name="bot"></point>
    </contour>
    <contour>
      <point x="598" y="1496.79693995" type="move" name="top"></point>
    </contour>
  </outline>
</glyph>
<glyph name="E" format="1">
  <advance width="1196"></advance>
  <unicode hex="0045"></unicode>
  <outline>
    <contour>
      <point x="144" y="0" type="line"></point>
      <point x="1098" y="0" type="line"></point>
      <point x="1110" y="137" type="line"></point>
      <point x="261" y="137" type="line"></point>
      <point x="320" y="67" type="line"></point>
      <point x="320" y="741" type="line"></point>
      <point x="261" y="686" type="line"></point>
      <point x="1027" y="686" type="line"></point>
      <point x="1027" y="822" type="line"></point>
      <point x="261" y="822" type="line"></point>
      <point x="320" y="775" type="line"></point>
      <point x="320" y="1374" type="line"></point>
      <point x="261" y="1321" type="line"></point>
      <point x="1089" y="1321" type="line"></point>
      <point x="1095" y="1456" type="line"></point>
      <point x="144" y="1456" type="line"></point>
    </contour>
    <contour>
      <point x="821" y="0.0" type="move" name="ogonek"></point>
    </contour>
    <contour>
      <point x="611" y="0.0" type="move" name="bot"></point>
    </contour>
    <contour>
      <point x="589" y="1496.5" type="move" name="top"></point>
    </contour>
  </outline>
</glyph>
<glyph name="F" format="1">
  <advance width="1167"/>
  <unicode hex="0046"/>
  <outline>
    <contour>
      <point x="138" y="0" type="line"/>
      <point x="314" y="0" type="line"/>
      <point x="314" y="718" type="line"/>
      <point x="232" y="666" type="line"/>
      <point x="996" y="666" type="line"/>
      <point x="996" y="797" type="line"/>
      <point x="239" y="797" type="line"/>
      <point x="314" y="748" type="line"/>
      <point x="314" y="1385" type="line"/>
      <point x="239" y="1318" type="line"/>
      <point x="1091" y="1318" type="line"/>
      <point x="1101" y="1456" type="line"/>
      <point x="138" y="1456" type="line"/>
    </contour>
    <contour>
      <point x="592" y="1496.5" type="move" name="top"/>
    </contour>
  </outline>
</glyph>
<glyph name="G" format="1">
  <advance width="1339"></advance>
  <unicode hex="0047"></unicode>
  <outline>
    <contour>
      <point x="750" y="-20" type="curve" smooth="yes"></point>
      <point x="946" y="-20"></point>
      <point x="1071" y="14"></point>
      <point x="1218" y="72" type="curve"></point>
      <point x="1218" y="764" type="line"></point>
      <point x="767" y="764" type="line"></point>
      <point x="760" y="621" type="line"></point>
      <point x="1103" y="621" type="line"></point>
      <point x="1055" y="676" type="line"></point>
      <point x="1055" y="108" type="line"></point>
      <point x="1115" y="183" type="line"></point>
      <point x="1047" y="161"></point>
      <point x="960" y="123"></point>
      <point x="781" y="123" type="curve" smooth="yes"></point>
      <point x="396" y="123"></point>
      <point x="263" y="369"></point>
      <point x="263" y="738" type="curve" smooth="yes"></point>
      <point x="263" y="1091"></point>
      <point x="440" y="1334"></point>
      <point x="782" y="1334" type="curve" smooth="yes"></point>
      <point x="972" y="1334"></point>
      <point x="1053" y="1256"></point>
      <point x="1117" y="1188" type="curve"></point>
      <point x="1208" y="1294" type="line"></point>
      <point x="1126" y="1400"></point>
      <point x="990" y="1477"></point>
      <point x="779" y="1477" type="curve" smooth="yes"></point>
      <point x="340" y="1477"></point>
      <point x="86" y="1176"></point>
      <point x="86" y="737" type="curve" smooth="yes"></point>
      <point x="86" y="303"></point>
      <point x="301" y="-20"></point>
    </contour>
    <contour>
      <point x="789" y="0.5" type="move" name="bot"></point>
    </contour>
    <contour>
      <point x="794" y="1497.0" type="move" name="top"></point>
    </contour>
  </outline>
</glyph>
<glyph name="H" format="1">
  <advance width="1387"></advance>
  <unicode hex="0048"></unicode>
  <outline>
    <contour>
      <point x="166" y="0" type="line"></point>
      <point x="342" y="0" type="line"></point>
      <point x="342" y="723" type="line"></point>
      <point x="282" y="678" type="line"></point>
      <point x="1142" y="678" type="line"></point>
      <point x="1091" y="723" type="line"></point>
      <point x="1091" y="0" type="line"></point>
      <point x="1267" y="0" type="line"></point>
      <point x="1267" y="1456" type="line"></point>
      <point x="1091" y="1456" type="line"></point>
      <point x="1091" y="780" type="line"></point>
      <point x="1141" y="820" type="line"></point>
      <point x="277" y="820" type="line"></point>
      <point x="342" y="780" type="line"></point>
      <point x="342" y="1456" type="line"></point>
      <point x="166" y="1456" type="line"></point>
    </contour>
    <contour>
      <point x="727" y="1496.5" type="move" name="top"></point>
    </contour>
    <contour>
      <point x="724" y="1206.425" type="move" name="mid"></point>
    </contour>
  </outline>
</glyph>
<glyph name="I" format="1">
  <advance width="824"></advance>
  <unicode hex="0049"></unicode>
  <outline>
    <contour>
      <point x="137" y="1456" type="line"></point>
      <point x="137" y="1347" type="line"></point>
      <point x="369" y="1347" type="line"></point>
      <point x="329" y="1401" type="line"></point>
      <point x="329" y="58" type="line"></point>
      <point x="369" y="110" type="line"></point>
      <point x="137" y="110" type="line"></point>
      <point x="137" y="0" type="line"></point>
      <point x="695" y="0" type="line"></point>
      <point x="695" y="110" type="line"></point>
      <point x="465" y="110" type="line"></point>
      <point x="505" y="56" type="line"></point>
      <point x="505" y="1402" type="line"></point>
      <point x="465" y="1347" type="line"></point>
      <point x="695" y="1347" type="line"></point>
      <point x="695" y="1456" type="line"></point>
    </contour>
    <contour>
      <point x="418" y="0.0" type="move" name="bot"></point>
    </contour>
    <contour>
      <point x="417" y="1456" type="move" name="top"></point>
    </contour>
  </outline>
</glyph>
<glyph name="J" format="1">
  <advance width="877"></advance>
  <unicode hex="004A"></unicode>
  <outline>
    <contour>
      <point x="305" y="-168" type="line" smooth="yes"></point>
      <point x="630" y="-133"></point>
      <point x="740" y="0"></point>
      <point x="740" y="308" type="curve" smooth="yes"></point>
      <point x="740" y="1456" type="line"></point>
      <point x="564" y="1456" type="line"></point>
      <point x="564" y="282" type="line" smooth="yes"></point>
      <point x="564" y="84"></point>
      <point x="499" y="13"></point>
      <point x="293" y="-19" type="curve" smooth="yes"></point>
      <point x="213" y="-31" type="line"></point>
      <point x="229" y="-176" type="line"></point>
    </contour>
    <contour>
      <point x="657" y="1456" type="move" name="top"></point>
    </contour>
  </outline>
</glyph>
<glyph name="K" format="1">
  <advance width="1196"></advance>
  <unicode hex="004B"></unicode>
  <outline>
    <contour>
      <point x="111" y="0" type="line"></point>
      <point x="287" y="0" type="line"></point>
      <point x="287" y="650" type="line"></point>
      <point x="241" y="539" type="line"></point>
      <point x="507" y="787" type="line"></point>
      <point x="435" y="786" type="line"></point>
      <point x="1037" y="0" type="line"></point>
      <point x="1243" y="0" type="line"></point>
      <point x="552" y="896" type="line"></point>
      <point x="552" y="800" type="line"></point>
      <point x="1213" y="1456" type="line"></point>
      <point x="1007" y="1456" type="line"></point>
      <point x="235" y="696" type="line"></point>
      <point x="287" y="695" type="line"></point>
      <point x="287" y="1456" type="line"></point>
      <point x="111" y="1456" type="line"></point>
    </contour>
    <contour>
      <point x="588" y="0.0" type="move" name="bot"></point>
    </contour>
    <contour>
      <point x="585" y="1496.5" type="move" name="top"></point>
    </contour>
  </outline>
</glyph>
<glyph name="L" format="1">
  <advance width="1013"/>
  <unicode hex="004C"/>
  <outline>
    <contour>
      <point x="144" y="0" type="line"/>
      <point x="1026" y="0" type="line"/>
      <point x="1030" y="137" type="line"/>
      <point x="250" y="137" type="line"/>
      <point x="320" y="72" type="line"/>
      <point x="320" y="1456" type="line"/>
      <point x="144" y="1456" type="line"/>
    </contour>
    <contour>
      <point x="581" y="0.0" type="move" name="bot"/>
    </contour>
    <contour>
      <point x="695" y="849.725" type="move" name="mid"/>
    </contour>
    <contour>
      <point x="388" y="1456" type="move" name="top"/>
    </contour>
    <contour>
      <point x="234" y="795.4" type="move" name="mid2"/>
    </contour>
  </outline>
</glyph>
<glyph name="M" format="1">
  <advance width="1727"></advance>
  <unicode hex="004D"></unicode>
  <outline>
    <contour>
      <point x="109" y="0" type="line"></point>
      <point x="275" y="0" type="line"></point>
      <point x="301" y="924" type="line"></point>
      <point x="301" y="1314" type="line"></point>
      <point x="271" y="1304" type="line"></point>
      <point x="761" y="167" type="line"></point>
      <point x="912" y="167" type="line"></point>
      <point x="1411" y="1303" type="line"></point>
      <point x="1375" y="1315" type="line"></point>
      <point x="1375" y="928" type="line"></point>
      <point x="1401" y="0" type="line"></point>
      <point x="1565" y="0" type="line"></point>
      <point x="1524" y="1456" type="line"></point>
      <point x="1314" y="1456" type="line"></point>
      <point x="816" y="318" type="line"></point>
      <point x="860" y="318" type="line"></point>
      <point x="366" y="1456" type="line"></point>
      <point x="150" y="1456" type="line"></point>
    </contour>
    <contour>
      <point x="852" y="1496.5" type="move" name="top"></point>
    </contour>
  </outline>
</glyph>
<glyph name="N" format="1">
  <advance width="1503"></advance>
  <unicode hex="004E"></unicode>
  <outline>
    <contour>
      <point x="179" y="0" type="line"></point>
      <point x="342" y="0" type="line"></point>
      <point x="342" y="761" type="line"></point>
      <point x="323" y="1312" type="line"></point>
      <point x="281" y="1298" type="line"></point>
      <point x="1099" y="0" type="line"></point>
      <point x="1280" y="0" type="line"></point>
      <point x="1280" y="1456" type="line"></point>
      <point x="1118" y="1456" type="line"></point>
      <point x="1118" y="644" type="line"></point>
      <point x="1130" y="145" type="line"></point>
      <point x="1165" y="160" type="line"></point>
      <point x="353" y="1456" type="line"></point>
      <point x="179" y="1456" type="line"></point>
    </contour>
    <contour>
      <point x="787" y="1496.5" type="move" name="top"></point>
    </contour>
  </outline>
</glyph>
<glyph name="O" format="1">
  <advance width="1493"></advance>
  <unicode hex="004F"></unicode>
  <outline>
    <contour>
      <point x="748" y="122" type="curve" smooth="yes"></point>
      <point x="398" y="122"></point>
      <point x="276" y="365"></point>
      <point x="276" y="720" type="curve" smooth="yes"></point>
      <point x="276" y="1091"></point>
      <point x="410" y="1334"></point>
      <point x="750" y="1334" type="curve" smooth="yes"></point>
      <point x="1091" y="1334"></point>
      <point x="1219" y="1089"></point>
      <point x="1219" y="720" type="curve" smooth="yes"></point>
      <point x="1219" y="365"></point>
      <point x="1098" y="122"></point>
    </contour>
    <contour>
      <point x="750" y="-20" type="curve" smooth="yes"></point>
      <point x="1192" y="-20"></point>
      <point x="1395" y="275"></point>
      <point x="1395" y="718" type="curve" smooth="yes"></point>
      <point x="1395" y="1181"></point>
      <point x="1180" y="1476"></point>
      <point x="751" y="1476" type="curve" smooth="yes"></point>
      <point x="313" y="1476"></point>
      <point x="99" y="1184"></point>
      <point x="99" y="721" type="curve" smooth="yes"></point>
      <point x="99" y="269"></point>
      <point x="303" y="-20"></point>
    </contour>
    <contour>
      <point x="750" y="0.5" type="move" name="bot"></point>
    </contour>
    <contour>
      <point x="756" y="1476" type="move" name="top"></point>
    </contour>
  </outline>
</glyph>
<glyph name="Q" format="1">
  <advance width="1493"/>
  <unicode hex="0051"/>
  <outline>
    <contour>
      <point x="1006" y="-417" type="line"/>
      <point x="1117" y="-343" type="line"/>
      <point x="857" y="91" type="line"/>
      <point x="709" y="62" type="line"/>
    </contour>
    <component base="O"/>
  </outline>
</glyph>
<glyph name="R" format="1">
  <advance width="1271"></advance>
  <unicode hex="0052"></unicode>
  <outline>
    <contour>
      <point x="166" y="0" type="line"></point>
      <point x="342" y="0" type="line"></point>
      <point x="342" y="728" type="line"></point>
      <point x="292" y="674" type="line"></point>
      <point x="426" y="661"></point>
      <point x="608" y="662"></point>
      <point x="734" y="669" type="curve"></point>
      <point x="675" y="709" type="line"></point>
      <point x="1032" y="0" type="line"></point>
      <point x="1229" y="0" type="line"></point>
      <point x="848" y="729" type="line"></point>
      <point x="825" y="691" type="line"></point>
      <point x="1056" y="735"></point>
      <point x="1189" y="850"></point>
      <point x="1184" y="1086" type="curve" smooth="yes"></point>
      <point x="1178" y="1346"></point>
      <point x="1023" y="1456"></point>
      <point x="569" y="1456" type="curve" smooth="yes"></point>
      <point x="429" y="1456"></point>
      <point x="299" y="1447"></point>
      <point x="166" y="1432" type="curve"></point>
    </contour>
    <contour>
      <point x="292" y="1316" type="line"></point>
      <point x="321" y="1320"></point>
      <point x="512" y="1328"></point>
      <point x="580" y="1328" type="curve"></point>
      <point x="926" y="1328"></point>
      <point x="1021" y="1254"></point>
      <point x="1022" y="1077" type="curve" smooth="yes"></point>
      <point x="1024" y="816"></point>
      <point x="839" y="771"></point>
      <point x="292" y="802" type="curve"></point>
      <point x="342" y="755" type="line"></point>
      <point x="342" y="1368" type="line"></point>
    </contour>
    <contour>
      <point x="673" y="0.0" type="move" name="bot"></point>
    </contour>
    <contour>
      <point x="718" y="1496.5" type="move" name="top"></point>
    </contour>
  </outline>
</glyph>
<glyph name="S" format="1">
  <advance width="1151"></advance>
  <unicode hex="0053"></unicode>
  <outline>
    <contour>
      <point x="1058" y="374" type="curve" smooth="yes"></point>
      <point x="1061" y="709"></point>
      <point x="842" y="734"></point>
      <point x="457" y="892" type="curve" smooth="yes"></point>
      <point x="325" y="945"></point>
      <point x="246" y="983"></point>
      <point x="257" y="1120" type="curve" smooth="yes"></point>
      <point x="271" y="1297"></point>
      <point x="405" y="1334"></point>
      <point x="579" y="1334" type="curve" smooth="yes"></point>
      <point x="729" y="1334"></point>
      <point x="854" y="1252"></point>
      <point x="906" y="1146" type="curve"></point>
      <point x="1026" y="1227" type="line"></point>
      <point x="938" y="1402"></point>
      <point x="768" y="1476"></point>
      <point x="573" y="1476" type="curve" smooth="yes"></point>
      <point x="330" y="1476"></point>
      <point x="102" y="1399"></point>
      <point x="84" y="1121" type="curve" smooth="yes"></point>
      <point x="64" y="819"></point>
      <point x="264" y="800"></point>
      <point x="624" y="651" type="curve" smooth="yes"></point>
      <point x="795" y="580"></point>
      <point x="898" y="529"></point>
      <point x="893" y="369" type="curve" smooth="yes"></point>
      <point x="887" y="184"></point>
      <point x="741" y="123"></point>
      <point x="556" y="123" type="curve" smooth="yes"></point>
      <point x="430" y="123"></point>
      <point x="265" y="171"></point>
      <point x="181" y="316" type="curve"></point>
      <point x="67" y="243" type="line"></point>
      <point x="103" y="123"></point>
      <point x="277" y="-20"></point>
      <point x="559" y="-20" type="curve" smooth="yes"></point>
      <point x="794" y="-20"></point>
      <point x="1055" y="72"></point>
    </contour>
    <contour>
      <point x="526" y="0.5" type="move" name="bot"></point>
    </contour>
    <contour>
      <point x="549" y="1497.0" type="move" name="top"></point>
    </contour>
  </outline>
</glyph>
<glyph name="T" format="1">
  <advance width="1271"></advance>
  <unicode hex="0054"></unicode>
  <outline>
    <contour>
      <point x="745" y="0" type="line"></point>
      <point x="921" y="0" type="line"></point>
      <point x="921" y="1387" type="line"></point>
      <point x="862" y="1319" type="line"></point>
      <point x="1400" y="1319" type="line"></point>
      <point x="1400" y="1456" type="line"></point>
      <point x="268" y="1456" type="line"></point>
      <point x="268" y="1319" type="line"></point>
      <point x="799" y="1319" type="line"></point>
      <point x="745" y="1384" type="line"></point>
    </contour>
    <contour>
      <point x="838" y="0.0" type="move" name="bot"></point>
    </contour>
    <contour>
      <point x="837" y="1496.5" type="move" name="top"></point>
    </contour>
    <contour>
      <point x="830" y="785.15" type="move" name="mid"></point>
    </contour>
  </outline>
</glyph>
<glyph name="U" format="1">
  <advance width="1275"></advance>
  <unicode hex="0055"></unicode>
  <outline>
    <contour>
      <point x="647" y="-20" type="curve" smooth="yes"></point>
      <point x="1031" y="-20"></point>
      <point x="1195" y="217"></point>
      <point x="1195" y="540" type="curve" smooth="yes"></point>
      <point x="1195" y="1457" type="line"></point>
      <point x="1019" y="1457" type="line"></point>
      <point x="1019" y="546" type="line" smooth="yes"></point>
      <point x="1019" y="271"></point>
      <point x="910" y="123"></point>
      <point x="647" y="123" type="curve" smooth="yes"></point>
      <point x="375" y="123"></point>
      <point x="275" y="271"></point>
      <point x="275" y="546" type="curve" smooth="yes"></point>
      <point x="275" y="1457" type="line"></point>
      <point x="99" y="1457" type="line"></point>
      <point x="99" y="543" type="line" smooth="yes"></point>
      <point x="99" y="211"></point>
      <point x="259" y="-20"></point>
    </contour>
    <contour>
      <point x="792" y="21.0" type="move" name="ogonek"></point>
    </contour>
    <contour>
      <point x="644" y="0.5" type="move" name="bot"></point>
    </contour>
    <contour>
      <point x="659" y="1497.0" type="move" name="top"></point>
    </contour>
  </outline>
</glyph>
<glyph name="V" format="1">
  <advance width="1142"></advance>
  <unicode hex="0056"></unicode>
  <outline>
    <contour>
      <point x="492" y="0" type="line"></point>
      <point x="646" y="0" type="line"></point>
      <point x="1195" y="1456" type="line"></point>
      <point x="1014" y="1456" type="line"></point>
      <point x="570" y="220" type="line"></point>
      <point x="125" y="1456" type="line"></point>
      <point x="-46" y="1456" type="line"></point>
    </contour>
  </outline>
</glyph>
<glyph name="W" format="1">
  <advance width="1568"></advance>
  <unicode hex="0057"></unicode>
  <outline>
    <contour>
      <point x="282" y="0" type="line"></point>
      <point x="449" y="0" type="line"></point>
      <point x="791" y="1209" type="line"></point>
      <point x="1120" y="0" type="line"></point>
      <point x="1291" y="0" type="line"></point>
      <point x="1624" y="1456" type="line"></point>
      <point x="1454" y="1456" type="line"></point>
      <point x="1204" y="230" type="line"></point>
      <point x="874" y="1425" type="line"></point>
      <point x="704" y="1425" type="line"></point>
      <point x="369" y="229" type="line"></point>
      <point x="104" y="1456" type="line"></point>
      <point x="-52" y="1456" type="line"></point>
    </contour>
    <contour>
      <point x="788" y="0.0" type="move" name="bot"></point>
    </contour>
    <contour>
      <point x="785" y="1496.5" type="move" name="top"></point>
    </contour>
  </outline>
</glyph>
<glyph name="X" format="1">
  <advance width="1128"></advance>
  <unicode hex="0058"></unicode>
  <outline>
    <contour>
      <point x="950" y="0" type="line"></point>
      <point x="1149" y="0" type="line"></point>
      <point x="663" y="730" type="line"></point>
      <point x="1142" y="1456" type="line"></point>
      <point x="954" y="1456" type="line"></point>
      <point x="575" y="873" type="line"></point>
      <point x="180" y="1456" type="line"></point>
      <point x="-19" y="1456" type="line"></point>
      <point x="463" y="730" type="line"></point>
      <point x="-21" y="0" type="line"></point>
      <point x="163" y="0" type="line"></point>
      <point x="555" y="584" type="line"></point>
    </contour>
  </outline>
</glyph>
<glyph name="Y" format="1">
  <advance width="1156"></advance>
  <unicode hex="0059"></unicode>
  <outline>
    <contour>
      <point x="473" y="0" type="line"></point>
      <point x="649" y="0" type="line"></point>
      <point x="649" y="510" type="line"></point>
      <point x="1158" y="1456" type="line"></point>
      <point x="984" y="1456" type="line"></point>
      <point x="561" y="659" type="line"></point>
      <point x="122" y="1456" type="line"></point>
      <point x="-49" y="1456" type="line"></point>
      <point x="473" y="508" type="line"></point>
    </contour>
    <contour>
      <point x="560" y="1496.5" type="move" name="top"></point>
    </contour>
  </outline>
</glyph>
<glyph name="Z" format="1">
  <advance width="1142"></advance>
  <unicode hex="005A"></unicode>
  <outline>
    <contour>
      <point x="61" y="0" type="line"></point>
      <point x="1089" y="0" type="line"></point>
      <point x="1097" y="137" type="line"></point>
      <point x="261" y="137" type="line"></point>
      <point x="1090" y="1332" type="line"></point>
      <point x="1083" y="1456" type="line"></point>
      <point x="94" y="1456" type="line"></point>
      <point x="94" y="1321" type="line"></point>
      <point x="894" y="1321" type="line"></point>
      <point x="61" y="127" type="line"></point>
    </contour>
    <contour>
      <point x="653" y="0.0" type="move" name="bot"></point>
    </contour>
    <contour>
      <point x="639" y="1496.5" type="move" name="top"></point>
    </contour>
  </outline>
</glyph>
<glyph name="bracketright" format="1">
  <advance width="824"></advance>
  <unicode hex="005D"></unicode>
  <outline>
    <contour>
      <point x="226" y="-255" type="line"></point>
      <point x="226" y="-135" type="line"></point>
      <point x="514" y="-135" type="line"></point>
      <point x="514" y="1382" type="line"></point>
      <point x="226" y="1382" type="line"></point>
      <point x="226" y="1503" type="line"></point>
      <point x="690" y="1503" type="line"></point>
      <point x="690" y="-255" type="line"></point>
    </contour>
  </outline>
</glyph>
<glyph name="asciicircum" format="1">
  <advance width="797"></advance>
  <unicode hex="005E"></unicode>
  <unicode hex="0302"></unicode>
  <outline>
    <contour>
      <point x="213" y="1087" type="line"></point>
      <point x="324" y="1087" type="line"></point>
      <point x="482" y="1368" type="line"></point>
      <point x="636" y="1087" type="line"></point>
      <point x="748" y="1087" type="line"></point>
      <point x="580" y="1469" type="line"></point>
      <point x="393" y="1469" type="line"></point>
    </contour>
  </outline>
</glyph>
<glyph name="a" format="1">
  <advance width="1066"/>
  <unicode hex="0061"/>
  <outline>
    <contour>
      <point x="795" y="313" type="line"/>
      <point x="720" y="191"/>
      <point x="590" y="96"/>
      <point x="420" y="104" type="curve" smooth="yes"/>
      <point x="327" y="108"/>
      <point x="249" y="167"/>
      <point x="249" y="292" type="curve" smooth="yes"/>
      <point x="249" y="415"/>
      <point x="316" y="494"/>
      <point x="546" y="494" type="curve" smooth="yes"/>
      <point x="601" y="494"/>
      <point x="739" y="486"/>
      <point x="816" y="473" type="curve"/>
      <point x="771" y="527" type="line"/>
      <point x="771" y="239" type="line"/>
    </contour>
    <contour>
      <point x="771" y="561" type="line"/>
      <point x="815" y="588" type="line"/>
      <point x="729" y="601"/>
      <point x="591" y="607"/>
      <point x="530" y="607" type="curve" smooth="yes"/>
      <point x="211" y="607"/>
      <point x="91" y="482"/>
      <point x="91" y="293" type="curve" smooth="yes"/>
      <point x="91" y="92"/>
      <point x="221" y="-20"/>
      <point x="412" y="-20" type="curve" smooth="yes"/>
      <point x="534" y="-20"/>
      <point x="692" y="16"/>
      <point x="816" y="179" type="curve"/>
      <point x="786" y="189" type="line"/>
      <point x="809" y="0" type="line"/>
      <point x="935" y="0" type="line"/>
      <point x="935" y="717" type="line" smooth="yes"/>
      <point x="935" y="1006"/>
      <point x="769" y="1106"/>
      <point x="528" y="1106" type="curve" smooth="yes"/>
      <point x="339" y="1106"/>
      <point x="162" y="1036"/>
      <point x="134" y="878" type="curve"/>
      <point x="269" y="853" type="line"/>
      <point x="302" y="954"/>
      <point x="408" y="980"/>
      <point x="526" y="980" type="curve" smooth="yes"/>
      <point x="689" y="980"/>
      <point x="771" y="898"/>
      <point x="771" y="742" type="curve"/>
    </contour>
    <contour>
      <point x="537" y="1082.9" type="move" name="top"/>
    </contour>
    <contour>
      <point x="874" y="0.5" type="move" name="ogonek"/>
    </contour>
    <contour>
      <point x="460" y="0.5" type="move" name="bot"/>
    </contour>
  </outline>
</glyph>
<glyph name="b" format="1">
  <advance width="1271"></advance>
  <unicode hex="0062"></unicode>
  <outline>
    <contour>
      <point x="631" y="110" type="curve" smooth="yes"></point>
      <point x="433" y="110"></point>
      <point x="323" y="261"></point>
      <point x="323" y="559" type="curve" smooth="yes"></point>
      <point x="323" y="812"></point>
      <point x="414" y="978"></point>
      <point x="641" y="978" type="curve" smooth="yes"></point>
      <point x="856" y="978"></point>
      <point x="920" y="799"></point>
      <point x="920" y="542" type="curve" smooth="yes"></point>
      <point x="920" y="275"></point>
      <point x="843" y="110"></point>
    </contour>
    <contour>
      <point x="647" y="-20" type="curve" smooth="yes"></point>
      <point x="942" y="-20"></point>
      <point x="1090" y="204"></point>
      <point x="1090" y="542" type="curve" smooth="yes"></point>
      <point x="1090" y="880"></point>
      <point x="954" y="1108"></point>
      <point x="655" y="1108" type="curve" smooth="yes"></point>
      <point x="493" y="1108"></point>
      <point x="389" y="1022"></point>
      <point x="303" y="874" type="curve"></point>
      <point x="324" y="872" type="line"></point>
      <point x="330" y="1105" type="line"></point>
      <point x="330" y="1560" type="line"></point>
      <point x="166" y="1548" type="line"></point>
      <point x="166" y="0" type="line"></point>
      <point x="297" y="0" type="line"></point>
      <point x="317" y="251" type="line"></point>
      <point x="292" y="244" type="line"></point>
      <point x="347" y="113"></point>
      <point x="462" y="-20"></point>
    </contour>
  </outline>
</glyph>
<glyph name="c" format="1">
  <advance width="1006"/>
  <unicode hex="0063"/>
  <outline>
    <contour>
      <point x="579" y="-20" type="curve" smooth="yes"/>
      <point x="820" y="-20"/>
      <point x="942" y="131"/>
      <point x="963" y="243" type="curve"/>
      <point x="858" y="293" type="line"/>
      <point x="823" y="187"/>
      <point x="753" y="106"/>
      <point x="585" y="106" type="curve" smooth="yes"/>
      <point x="350" y="106"/>
      <point x="269" y="285"/>
      <point x="269" y="543" type="curve" smooth="yes"/>
      <point x="269" y="825"/>
      <point x="381" y="978"/>
      <point x="589" y="980" type="curve" smooth="yes"/>
      <point x="763" y="982"/>
      <point x="825" y="868"/>
      <point x="851" y="771" type="curve"/>
      <point x="965" y="824" type="line"/>
      <point x="951" y="922"/>
      <point x="864" y="1105"/>
      <point x="595" y="1106" type="curve" smooth="yes"/>
      <point x="372" y="1107"/>
      <point x="99" y="974"/>
      <point x="99" y="538" type="curve" smooth="yes"/>
      <point x="99" y="200"/>
      <point x="283" y="-20"/>
    </contour>
    <contour>
      <point x="596" y="1083" type="move" name="top"/>
    </contour>
    <contour>
      <point x="615" y="1" type="move" name="bot"/>
    </contour>
  </outline>
</glyph>
<glyph name="d" format="1">
  <advance width="1163"/>
  <unicode hex="0064"/>
  <outline>
    <contour>
      <point x="543" y="-20" type="curve" smooth="yes"/>
      <point x="737" y="-20"/>
      <point x="818" y="82"/>
      <point x="883" y="247" type="curve"/>
      <point x="858" y="256" type="line"/>
      <point x="878" y="0" type="line"/>
      <point x="1014" y="0" type="line"/>
      <point x="1014" y="1560" type="line"/>
      <point x="850" y="1548" type="line"/>
      <point x="850" y="1160" type="line"/>
      <point x="860" y="837" type="line"/>
      <point x="878" y="867" type="line"/>
      <point x="818" y="990"/>
      <point x="757" y="1106"/>
      <point x="542" y="1106" type="curve" smooth="yes"/>
      <point x="259" y="1106"/>
      <point x="99" y="879"/>
      <point x="99" y="551" type="curve" smooth="yes"/>
      <point x="99" y="208"/>
      <point x="246" y="-20"/>
    </contour>
    <contour>
      <point x="557" y="109" type="curve" smooth="yes"/>
      <point x="341" y="109"/>
      <point x="267" y="290"/>
      <point x="267" y="548" type="curve" smooth="yes"/>
      <point x="267" y="817"/>
      <point x="356" y="980"/>
      <point x="566" y="980" type="curve" smooth="yes"/>
      <point x="765" y="980"/>
      <point x="857" y="826"/>
      <point x="857" y="531" type="curve" smooth="yes"/>
      <point x="856" y="278"/>
      <point x="786" y="109"/>
    </contour>
    <contour>
      <point x="1245" y="1011.15" type="move" name="mid"/>
    </contour>
  </outline>
</glyph>
<glyph name="e" format="1">
  <advance width="1066"/>
  <unicode hex="0065"/>
  <outline>
    <contour>
      <point x="605" y="-20" type="curve" smooth="yes"/>
      <point x="754" y="-20"/>
      <point x="878" y="20"/>
      <point x="969" y="75" type="curve"/>
      <point x="934" y="195" type="line"/>
      <point x="840" y="145"/>
      <point x="740" y="106"/>
      <point x="623" y="106" type="curve" smooth="yes"/>
      <point x="413" y="106"/>
      <point x="261" y="249"/>
      <point x="260" y="567" type="curve"/>
      <point x="209" y="516" type="line"/>
      <point x="994" y="516" type="line"/>
      <point x="994" y="516"/>
      <point x="1000" y="576"/>
      <point x="1000" y="602" type="curve" smooth="yes"/>
      <point x="1000" y="914"/>
      <point x="848" y="1106"/>
      <point x="585" y="1106" type="curve" smooth="yes"/>
      <point x="317" y="1106"/>
      <point x="93" y="891"/>
      <point x="93" y="538" type="curve" smooth="yes"/>
      <point x="93" y="190"/>
      <point x="318" y="-20"/>
    </contour>
    <contour>
      <point x="862" y="577" type="curve"/>
      <point x="926" y="627" type="line"/>
      <point x="205" y="627" type="line"/>
      <point x="262" y="585" type="line"/>
      <point x="272" y="804"/>
      <point x="392" y="980"/>
      <point x="589" y="980" type="curve" smooth="yes"/>
      <point x="773" y="980"/>
      <point x="864" y="819"/>
    </contour>
    <contour>
      <point x="884" y="53.8" type="move" name="ogonek"/>
    </contour>
    <contour>
      <point x="597" y="0.5" type="move" name="bot"/>
    </contour>
    <contour>
      <point x="564" y="1082.9" type="move" name="top"/>
    </contour>
  </outline>
</glyph>
<glyph name="f" format="1">
  <advance width="691"></advance>
  <unicode hex="0066"></unicode>
  <outline>
    <contour>
      <point x="236" y="0" type="line"></point>
      <point x="400" y="0" type="line"></point>
      <point x="400" y="1020" type="line"></point>
      <point x="368" y="980" type="line"></point>
      <point x="675" y="980" type="line"></point>
      <point x="675" y="1082" type="line"></point>
      <point x="364" y="1082" type="line"></point>
      <point x="400" y="1045" type="line"></point>
      <point x="400" y="1162" type="line" smooth="yes"></point>
      <point x="400" y="1367"></point>
      <point x="476" y="1392"></point>
      <point x="577" y="1392" type="curve" smooth="yes"></point>
      <point x="623" y="1392"></point>
      <point x="669" y="1384"></point>
      <point x="679" y="1382" type="curve"></point>
      <point x="691" y="1500" type="line"></point>
      <point x="670" y="1504"></point>
      <point x="621" y="1517"></point>
      <point x="547" y="1517" type="curve" smooth="yes"></point>
      <point x="362" y="1517"></point>
      <point x="236" y="1427"></point>
      <point x="236" y="1152" type="curve" smooth="yes"></point>
      <point x="236" y="1047" type="line"></point>
      <point x="276" y="1082" type="line"></point>
      <point x="47" y="1066" type="line"></point>
      <point x="42" y="980" type="line"></point>
      <point x="276" y="980" type="line"></point>
      <point x="236" y="1019" type="line"></point>
    </contour>
  </outline>
</glyph>
<glyph name="g" format="1">
  <advance width="1151"></advance>
  <unicode hex="0067"></unicode>
  <outline>
    <contour>
      <point x="855" y="57" type="line" smooth="yes"></point>
      <point x="855" y="-221"></point>
      <point x="754" y="-304"></point>
      <point x="532" y="-304" type="curve" smooth="yes"></point>
      <point x="396" y="-304"></point>
      <point x="316" y="-277"></point>
      <point x="223" y="-247" type="curve"></point>
      <point x="208" y="-380" type="line"></point>
      <point x="301" y="-410"></point>
      <point x="411" y="-437"></point>
      <point x="532" y="-437" type="curve" smooth="yes"></point>
      <point x="890" y="-437"></point>
      <point x="1011" y="-258"></point>
      <point x="1011" y="105" type="curve" smooth="yes"></point>
      <point x="1011" y="1082" type="line"></point>
      <point x="875" y="1082" type="line"></point>
      <point x="853" y="833" type="line"></point>
      <point x="878" y="854" type="line"></point>
      <point x="805" y="1006"></point>
      <point x="703" y="1106"></point>
      <point x="522" y="1106" type="curve" smooth="yes"></point>
      <point x="229" y="1106"></point>
      <point x="90" y="877"></point>
      <point x="90" y="538" type="curve" smooth="yes"></point>
      <point x="90" y="209"></point>
      <point x="242" y="-7"></point>
      <point x="525" y="-7" type="curve" smooth="yes"></point>
      <point x="714" y="-7"></point>
      <point x="814" y="95"></point>
      <point x="874" y="232" type="curve"></point>
      <point x="855" y="245" type="line"></point>
    </contour>
    <contour>
      <point x="551" y="123" type="curve" smooth="yes"></point>
      <point x="341" y="123"></point>
      <point x="260" y="277"></point>
      <point x="260" y="540" type="curve" smooth="yes"></point>
      <point x="260" y="790"></point>
      <point x="327" y="980"></point>
      <point x="541" y="980" type="curve" smooth="yes"></point>
      <point x="768" y="980"></point>
      <point x="853" y="808"></point>
      <point x="854" y="558" type="curve"></point>
      <point x="854" y="275"></point>
      <point x="752" y="123"></point>
    </contour>
    <contour>
      <point x="531" y="1094.4" type="move" name="top"></point>
    </contour>
    <contour>
      <point x="529" y="-475.9" type="move" name="bot"></point>
    </contour>
  </outline>
</glyph>
<glyph name="j" format="1">
  <advance width="558"></advance>
  <unicode hex="006A"></unicode>
  <outline>
    <contour>
      <point x="310" y="1496" type="curve" smooth="yes"></point>
      <point x="373" y="1496"></point>
      <point x="398" y="1459"></point>
      <point x="398" y="1395" type="curve" smooth="yes"></point>
      <point x="398" y="1330"></point>
      <point x="373" y="1292"></point>
      <point x="310" y="1292" type="curve" smooth="yes"></point>
      <point x="246" y="1292"></point>
      <point x="222" y="1330"></point>
      <point x="222" y="1395" type="curve" smooth="yes"></point>
      <point x="222" y="1459"></point>
      <point x="246" y="1496"></point>
    </contour>
    <contour>
      <point x="33" y="-378" type="line"></point>
      <point x="92" y="-371" type="line" smooth="yes"></point>
      <point x="312" y="-344"></point>
      <point x="392" y="-269"></point>
      <point x="392" y="-10" type="curve" smooth="yes"></point>
      <point x="392" y="1082" type="line"></point>
      <point x="228" y="1082" type="line"></point>
      <point x="228" y="21" type="line" smooth="yes"></point>
      <point x="228" y="-169"></point>
      <point x="225" y="-205"></point>
      <point x="76" y="-235" type="curve" smooth="yes"></point>
      <point x="14" y="-247" type="line"></point>
    </contour>
  </outline>
</glyph>
<glyph name="k" format="1">
  <advance width="1030"></advance>
  <unicode hex="006B"></unicode>
  <outline>
    <contour>
      <point x="131" y="0" type="line"></point>
      <point x="295" y="0" type="line"></point>
      <point x="295" y="438" type="line"></point>
      <point x="266" y="372" type="line"></point>
      <point x="450" y="529" type="line"></point>
      <point x="398" y="538" type="line"></point>
      <point x="844" y="0" type="line"></point>
      <point x="1039" y="0" type="line"></point>
      <point x="511" y="621" type="line"></point>
      <point x="507" y="556" type="line"></point>
      <point x="1001" y="1082" type="line"></point>
      <point x="800" y="1082" type="line"></point>
      <point x="254" y="499" type="line"></point>
      <point x="288" y="486" type="line"></point>
      <point x="295" y="757" type="line"></point>
      <point x="295" y="1560" type="line"></point>
      <point x="131" y="1547" type="line"></point>
    </contour>
    <contour>
      <point x="550" y="0.0" type="move" name="bot"></point>
    </contour>
  </outline>
</glyph>
<glyph name="l" format="1">
  <advance width="693"></advance>
  <unicode hex="006C"></unicode>
  <outline>
    <contour>
      <point x="522" y="-8" type="curve" smooth="yes"></point>
      <point x="581" y="-8" type="line"></point>
      <point x="590" y="114" type="line"></point>
      <point x="561" y="116" type="line" smooth="yes"></point>
      <point x="388" y="123"></point>
      <point x="355" y="138"></point>
      <point x="355" y="310" type="curve" smooth="yes"></point>
      <point x="355" y="1560" type="line"></point>
      <point x="191" y="1548" type="line"></point>
      <point x="191" y="311" type="line" smooth="yes"></point>
      <point x="191" y="45"></point>
      <point x="306" y="-8"></point>
    </contour>
    <contour>
      <point x="357" y="0.2" type="move" name="bot"></point>
    </contour>
    <contour>
      <point x="651" y="1083.625" type="move" name="mid"></point>
    </contour>
    <contour>
      <point x="365" y="1496.7" type="move" name="top"></point>
    </contour>
    <contour>
      <point x="271" y="918.6" type="move" name="mid2"></point>
    </contour>
  </outline>
</glyph>
<glyph name="m" format="1">
  <advance width="1807"></advance>
  <unicode hex="006D"></unicode>
  <outline>
    <contour>
      <point x="150" y="0" type="line"></point>
      <point x="314" y="0" type="line"></point>
      <point x="314" y="639" type="line"></point>
      <point x="340" y="830"></point>
      <point x="439" y="980"></point>
      <point x="609" y="980" type="curve" smooth="yes"></point>
      <point x="761" y="980"></point>
      <point x="820" y="864"></point>
      <point x="820" y="609" type="curve" smooth="yes"></point>
      <point x="820" y="0" type="line"></point>
      <point x="984" y="0" type="line"></point>
      <point x="984" y="593" type="line" smooth="yes"></point>
      <point x="984" y="870"></point>
      <point x="1141" y="980.0"></point>
      <point x="1285" y="980" type="curve" smooth="yes"></point>
      <point x="1464" y="980"></point>
      <point x="1490" y="801"></point>
      <point x="1490" y="646" type="curve" smooth="yes"></point>
      <point x="1490" y="0" type="line"></point>
      <point x="1654" y="0" type="line"></point>
      <point x="1654" y="699" type="line" smooth="yes"></point>
      <point x="1654" y="965"></point>
      <point x="1531" y="1106"></point>
      <point x="1311" y="1106" type="curve" smooth="yes"></point>
      <point x="1148" y="1106"></point>
      <point x="1004" y="1018"></point>
      <point x="931" y="858" type="curve"></point>
      <point x="956" y="862" type="line"></point>
      <point x="907" y="1000"></point>
      <point x="818" y="1106"></point>
      <point x="636" y="1106" type="curve" smooth="yes"></point>
      <point x="490" y="1106"></point>
      <point x="366" y="1023"></point>
      <point x="297" y="860" type="curve"></point>
      <point x="315" y="850" type="line"></point>
      <point x="292" y="1082" type="line"></point>
      <point x="150" y="1082" type="line"></point>
    </contour>
    <contour>
      <point x="930" y="1082.4" type="move" name="top"></point>
    </contour>
  </outline>
</glyph>
<glyph name="o" format="1">
  <advance width="1196"></advance>
  <unicode hex="006F"></unicode>
  <outline>
    <contour>
      <point x="596" y="106" type="curve" smooth="yes"></point>
      <point x="375" y="106"></point>
      <point x="282" y="294"></point>
      <point x="282" y="541" type="curve" smooth="yes"></point>
      <point x="282" y="794"></point>
      <point x="376" y="980"></point>
      <point x="596" y="980" type="curve" smooth="yes"></point>
      <point x="822" y="980"></point>
      <point x="911" y="793"></point>
      <point x="911" y="540" type="curve" smooth="yes"></point>
      <point x="911" y="293"></point>
      <point x="823" y="106"></point>
    </contour>
    <contour>
      <point x="596" y="-20" type="curve" smooth="yes"></point>
      <point x="900" y="-20"></point>
      <point x="1081" y="206"></point>
      <point x="1081" y="542" type="curve" smooth="yes"></point>
      <point x="1081" y="886"></point>
      <point x="915" y="1106"></point>
      <point x="596" y="1106" type="curve" smooth="yes"></point>
      <point x="280" y="1106"></point>
      <point x="112" y="886"></point>
      <point x="112" y="542" type="curve" smooth="yes"></point>
      <point x="112" y="206"></point>
      <point x="284" y="-20"></point>
    </contour>
    <contour>
      <point x="596" y="0.5" type="move" name="bot"></point>
    </contour>
    <contour>
      <point x="595" y="1082.9" type="move" name="top"></point>
    </contour>
  </outline>
</glyph>
<glyph name="p" format="1">
  <advance width="1116"></advance>
  <unicode hex="0070"></unicode>
  <outline>
    <contour>
      <point x="111" y="-416" type="line"></point>
      <point x="275" y="-416" type="line"></point>
      <point x="275" y="-68" type="line"></point>
      <point x="267" y="236" type="line"></point>
      <point x="248" y="228" type="line"></point>
      <point x="301" y="92"></point>
      <point x="407" y="-20"></point>
      <point x="598" y="-20" type="curve" smooth="yes"></point>
      <point x="881" y="-20"></point>
      <point x="1033" y="210"></point>
      <point x="1033" y="539" type="curve" smooth="yes"></point>
      <point x="1033" y="878"></point>
      <point x="897" y="1106"></point>
      <point x="604" y="1106" type="curve" smooth="yes"></point>
      <point x="433" y="1106"></point>
      <point x="317" y="1013"></point>
      <point x="253" y="857" type="curve"></point>
      <point x="268" y="852" type="line"></point>
      <point x="247" y="1082" type="line"></point>
      <point x="111" y="1082" type="line"></point>
    </contour>
    <contour>
      <point x="572" y="106" type="curve" smooth="yes"></point>
      <point x="371" y="106"></point>
      <point x="268" y="275"></point>
      <point x="268" y="558" type="curve"></point>
      <point x="269" y="808"></point>
      <point x="358" y="980"></point>
      <point x="585" y="980" type="curve" smooth="yes"></point>
      <point x="799" y="980"></point>
      <point x="863" y="791"></point>
      <point x="863" y="541" type="curve" smooth="yes"></point>
      <point x="863" y="277"></point>
      <point x="782" y="106"></point>
    </contour>
    <contour>
      <point x="609" y="1094.0" type="move" name="top"></point>
    </contour>
  </outline>
</glyph>
<glyph name="q" format="1">
  <advance width="1173"></advance>
  <unicode hex="0071"></unicode>
  <outline>
    <contour>
      <point x="846" y="-416" type="line"></point>
      <point x="1010" y="-416" type="line"></point>
      <point x="1010" y="1082" type="line"></point>
      <point x="874" y="1082" type="line"></point>
      <point x="855" y="841" type="line"></point>
      <point x="877" y="854" type="line"></point>
      <point x="809" y="1006"></point>
      <point x="714" y="1106"></point>
      <point x="533" y="1106" type="curve" smooth="yes"></point>
      <point x="240" y="1106"></point>
      <point x="106" y="878"></point>
      <point x="106" y="539" type="curve" smooth="yes"></point>
      <point x="106" y="210"></point>
      <point x="253" y="-20"></point>
      <point x="536" y="-20" type="curve" smooth="yes"></point>
      <point x="729" y="-20"></point>
      <point x="825" y="112"></point>
      <point x="873" y="259" type="curve"></point>
      <point x="856" y="268" type="line"></point>
      <point x="846" y="-68" type="line"></point>
    </contour>
    <contour>
      <point x="562" y="106" type="curve" smooth="yes"></point>
      <point x="352" y="106"></point>
      <point x="276" y="277"></point>
      <point x="276" y="541" type="curve" smooth="yes"></point>
      <point x="276" y="791"></point>
      <point x="338" y="980"></point>
      <point x="552" y="980" type="curve" smooth="yes"></point>
      <point x="779" y="980"></point>
      <point x="852" y="818"></point>
      <point x="853" y="558" type="curve"></point>
      <point x="853" y="275"></point>
      <point x="763" y="106"></point>
    </contour>
  </outline>
</glyph>
<glyph name="r" format="1">
  <advance width="671"></advance>
  <unicode hex="0072"></unicode>
  <outline>
    <contour>
      <point x="147" y="0.0" type="line"></point>
      <point x="311" y="0.0" type="line"></point>
      <point x="311" y="614.0" type="line" smooth="yes"></point>
      <point x="311" y="803.0"></point>
      <point x="420" y="959.0"></point>
      <point x="605" y="959.0" type="curve" smooth="yes"></point>
      <point x="627" y="959.0"></point>
      <point x="648" y="956.0"></point>
      <point x="673" y="951.0" type="curve"></point>
      <point x="686" y="1091.0" type="line"></point>
      <point x="663" y="1095.0"></point>
      <point x="642" y="1096"></point>
      <point x="612" y="1096.0" type="curve" smooth="yes"></point>
      <point x="474" y="1096"></point>
      <point x="361" y="1014"></point>
      <point x="276" y="819" type="curve"></point>
      <point x="301" y="808.0" type="line"></point>
      <point x="278" y="1082.0" type="line"></point>
      <point x="147" y="1082.0" type="line"></point>
    </contour>
    <contour>
      <point x="260" y="0.0" type="move" name="bot"></point>
    </contour>
    <contour>
      <point x="440" y="1082.4" type="move" name="top"></point>
    </contour>
  </outline>
</glyph>
<glyph name="s" format="1">
  <advance width="1010"></advance>
  <unicode hex="0073"></unicode>
  <outline>
    <contour>
      <point x="527" y="982" type="curve" smooth="yes"></point>
      <point x="683" y="982"></point>
      <point x="740" y="890"></point>
      <point x="757" y="812" type="curve"></point>
      <point x="879" y="852.0" type="line"></point>
      <point x="863" y="981.0"></point>
      <point x="756" y="1106.0"></point>
      <point x="516" y="1106.0" type="curve" smooth="yes"></point>
      <point x="273" y="1106.0"></point>
      <point x="123" y="996"></point>
      <point x="123" y="818" type="curve" smooth="yes"></point>
      <point x="123" y="695"></point>
      <point x="157" y="602"></point>
      <point x="490" y="500" type="curve" smooth="yes"></point>
      <point x="703" y="439"></point>
      <point x="743" y="380"></point>
      <point x="743" y="283" type="curve" smooth="yes"></point>
      <point x="743" y="168"></point>
      <point x="648" y="102"></point>
      <point x="512" y="102" type="curve" smooth="yes"></point>
      <point x="386" y="102"></point>
      <point x="270" y="153.0"></point>
      <point x="218" y="283.0" type="curve"></point>
      <point x="89" y="220.0" type="line"></point>
      <point x="154" y="64.0"></point>
      <point x="305" y="-20.0"></point>
      <point x="510" y="-20.0" type="curve" smooth="yes"></point>
      <point x="713" y="-20.0"></point>
      <point x="895" y="80.0"></point>
      <point x="895" y="291.0" type="curve" smooth="yes"></point>
      <point x="895" y="424.0"></point>
      <point x="870" y="524"></point>
      <point x="533" y="634.0" type="curve" smooth="yes"></point>
      <point x="337" y="698"></point>
      <point x="280" y="729.0"></point>
      <point x="280" y="819.0" type="curve" smooth="yes"></point>
      <point x="280" y="920.0"></point>
      <point x="353" y="982"></point>
    </contour>
    <contour>
      <point x="484" y="1" type="move" name="bot"></point>
    </contour>
    <contour>
      <point x="480" y="1083" type="move" name="top"></point>
    </contour>
  </outline>
</glyph>
<glyph name="t" format="1">
  <advance width="746"/>
  <unicode hex="0074"/>
  <outline>
    <contour>
      <point x="566" y="-8" type="curve" smooth="yes"/>
      <point x="635" y="-8" type="line"/>
      <point x="643" y="109" type="line"/>
      <point x="559" y="113" type="line"/>
      <point x="394" y="113"/>
      <point x="395" y="150"/>
      <point x="395" y="325" type="curve" smooth="yes"/>
      <point x="395" y="1020" type="line"/>
      <point x="362" y="980" type="line"/>
      <point x="633" y="980" type="line"/>
      <point x="633" y="1082" type="line"/>
      <point x="362" y="1082" type="line"/>
      <point x="395" y="1046" type="line"/>
      <point x="395" y="1382" type="line"/>
      <point x="262" y="1372" type="line"/>
      <point x="232" y="1051" type="line"/>
      <point x="265" y="1082" type="line"/>
      <point x="63" y="1073" type="line"/>
      <point x="59" y="980" type="line"/>
      <point x="261" y="980" type="line"/>
      <point x="231" y="1019" type="line"/>
      <point x="231" y="325" type="line" smooth="yes"/>
      <point x="231" y="69"/>
      <point x="267" y="-8"/>
    </contour>
    <contour>
      <point x="468" y="0.2" type="move" name="bot"/>
    </contour>
    <contour>
      <point x="307" y="631.6" type="move" name="mid"/>
    </contour>
    <contour>
      <point x="321" y="1383.95" type="move" name="top"/>
    </contour>
  </outline>
</glyph>
<glyph name="v" format="1">
  <advance width="1055"></advance>
  <unicode hex="0076"></unicode>
  <outline>
    <contour>
      <point x="439" y="0" type="line"></point>
      <point x="606" y="0" type="line"></point>
      <point x="995" y="1082" type="line"></point>
      <point x="829" y="1082" type="line"></point>
      <point x="647" y="550" type="line"></point>
      <point x="503" y="136" type="line"></point>
      <point x="546" y="136" type="line"></point>
      <point x="397" y="551" type="line"></point>
      <point x="213" y="1082" type="line"></point>
      <point x="45" y="1082" type="line"></point>
    </contour>
  </outline>
</glyph>
<glyph name="w" format="1">
  <advance width="1503"></advance>
  <unicode hex="0077"></unicode>
  <outline>
    <contour>
      <point x="334" y="0" type="line"></point>
      <point x="481" y="0" type="line"></point>
      <point x="782" y="989" type="line"></point>
      <point x="750" y="989" type="line"></point>
      <point x="1057" y="0" type="line"></point>
      <point x="1204" y="0" type="line"></point>
      <point x="1487" y="1082" type="line"></point>
      <point x="1335" y="1082" type="line"></point>
      <point x="1112" y="150" type="line"></point>
      <point x="1146" y="150" type="line"></point>
      <point x="850" y="1082" type="line"></point>
      <point x="673" y="1082" type="line"></point>
      <point x="397" y="149" type="line"></point>
      <point x="433" y="149" type="line"></point>
      <point x="189" y="1082" type="line"></point>
      <point x="32" y="1082" type="line"></point>
    </contour>
    <contour>
      <point x="764" y="1082.4" type="move" name="top"></point>
    </contour>
  </outline>
</glyph>
<glyph name="x" format="1">
  <advance width="1005"></advance>
  <unicode hex="0078"></unicode>
  <outline>
    <contour>
      <point x="785" y="0.0" type="line"></point>
      <point x="970" y="0.0" type="line"></point>
      <point x="243" y="1082.0" type="line"></point>
      <point x="58" y="1082.0" type="line"></point>
    </contour>
    <contour>
      <point x="586" y="531" type="line"></point>
      <point x="967" y="1082" type="line"></point>
      <point x="799" y="1082" type="line"></point>
      <point x="506" y="646" type="line"></point>
      <point x="422" y="557" type="line"></point>
      <point x="36" y="0" type="line"></point>
      <point x="203" y="0" type="line"></point>
      <point x="497" y="436" type="line"></point>
    </contour>
  </outline>
</glyph>
<glyph name="y" format="1">
  <advance width="1156"></advance>
  <unicode hex="0079"></unicode>
  <outline>
    <contour>
      <point x="487" y="-410" type="line"></point>
      <point x="1050" y="1082" type="line"></point>
      <point x="888" y="1082" type="line"></point>
      <point x="557" y="156" type="line"></point>
      <point x="598" y="159" type="line"></point>
      <point x="239" y="1082" type="line"></point>
      <point x="70" y="1082" type="line"></point>
      <point x="516" y="-20" type="line"></point>
      <point x="528" y="123" type="line"></point>
      <point x="344" y="-377" type="line"></point>
    </contour>
    <contour>
      <point x="566" y="1092.35" type="move" name="top"></point>
    </contour>
  </outline>
</glyph>
<glyph name="z" format="1">
  <advance width="1040"></advance>
  <unicode hex="007A"></unicode>
  <outline>
    <contour>
      <point x="115" y="0" type="line"></point>
      <point x="935" y="0" type="line"></point>
      <point x="927" y="127" type="line"></point>
      <point x="246" y="127" type="line"></point>
      <point x="269" y="89" type="line"></point>
      <point x="926" y="966" type="line"></point>
      <point x="926" y="1082" type="line"></point>
      <point x="136" y="1082" type="line"></point>
      <point x="142" y="960" type="line"></point>
      <point x="794" y="960" type="line"></point>
      <point x="781" y="997" type="line"></point>
      <point x="115" y="110" type="line"></point>
    </contour>
    <contour>
      <point x="517" y="0.0" type="move" name="bot"></point>
    </contour>
    <contour>
      <point x="520" y="1082.4" type="move" name="top"></point>
    </contour>
  </outline>
</glyph>
<glyph name="braceleft" format="1">
  <advance width="746"/>
  <unicode hex="007B"/>
  <outline>
    <contour>
      <point x="671" y="-154" type="line"/>
      <point x="437" y="-154"/>
      <point x="337" y="-32"/>
      <point x="337" y="192" type="curve" smooth="yes"/>
      <point x="337" y="322" type="line" smooth="yes"/>
      <point x="337" y="497"/>
      <point x="327" y="610"/>
      <point x="138" y="612" type="curve"/>
      <point x="138" y="761" type="line"/>
      <point x="325" y="761"/>
      <point x="337" y="876"/>
      <point x="337" y="1049" type="curve" smooth="yes"/>
      <point x="337" y="1224" type="line" smooth="yes"/>
      <point x="337" y="1423"/>
      <point x="458" y="1533"/>
      <point x="671" y="1534" type="curve"/>
      <point x="671" y="1409" type="line"/>
      <point x="529" y="1407"/>
      <point x="513" y="1348"/>
      <point x="513" y="1172" type="curve" smooth="yes"/>
      <point x="513" y="970" type="line"/>
      <point x="512" y="817"/>
      <point x="467" y="735"/>
      <point x="335" y="682" type="curve"/>
      <point x="466" y="644"/>
      <point x="513" y="566"/>
      <point x="513" y="407" type="curve" smooth="yes"/>
      <point x="513" y="205" type="line" smooth="yes"/>
      <point x="513" y="36"/>
      <point x="527" y="-30"/>
      <point x="671" y="-32" type="curve"/>
    </contour>
  </outline>
</glyph>
<glyph name="braceright" format="1">
  <advance width="746"/>
  <unicode hex="007D"/>
  <outline>
    <contour>
      <point x="74" y="1534" type="line"/>
      <point x="308" y="1534"/>
      <point x="408" y="1412"/>
      <point x="408" y="1188" type="curve" smooth="yes"/>
      <point x="408" y="1059" type="line" smooth="yes"/>
      <point x="408" y="883"/>
      <point x="418" y="771"/>
      <point x="607" y="769" type="curve"/>
      <point x="607" y="619" type="line"/>
      <point x="420" y="619"/>
      <point x="408" y="504"/>
      <point x="408" y="331" type="curve" smooth="yes"/>
      <point x="408" y="157" type="line" smooth="yes"/>
      <point x="408" y="-43"/>
      <point x="287" y="-153"/>
      <point x="74" y="-154" type="curve"/>
      <point x="74" y="-29" type="line"/>
      <point x="216" y="-27"/>
      <point x="232" y="33"/>
      <point x="232" y="208" type="curve" smooth="yes"/>
      <point x="232" y="410" type="line"/>
      <point x="233" y="564"/>
      <point x="278" y="646"/>
      <point x="410" y="698" type="curve"/>
      <point x="279" y="736"/>
      <point x="232" y="815"/>
      <point x="232" y="973" type="curve" smooth="yes"/>
      <point x="232" y="1175" type="line" smooth="yes"/>
      <point x="232" y="1345"/>
      <point x="218" y="1410"/>
      <point x="74" y="1412" type="curve"/>
    </contour>
  </outline>
</glyph>
<glyph name="asciitilde" format="1">
  <advance width="1116"></advance>
  <unicode hex="007E"></unicode>
  <outline>
    <contour>
      <point x="101" y="491" type="curve"></point>
      <point x="60" y="587" type="line"></point>
      <point x="105" y="698"></point>
      <point x="191" y="785"></point>
      <point x="319" y="785" type="curve" smooth="yes"></point>
      <point x="398" y="785"></point>
      <point x="455" y="762"></point>
      <point x="555" y="717" type="curve"></point>
      <point x="650" y="676"></point>
      <point x="729" y="636"></point>
      <point x="789" y="636" type="curve" smooth="yes"></point>
      <point x="871" y="636"></point>
      <point x="951" y="709"></point>
      <point x="989" y="795" type="curve"></point>
      <point x="1036" y="706" type="line"></point>
      <point x="987" y="582"></point>
      <point x="910" y="505"></point>
      <point x="787" y="505" type="curve" smooth="yes"></point>
      <point x="718" y="505"></point>
      <point x="646" y="534"></point>
      <point x="565" y="571" type="curve" smooth="yes"></point>
      <point x="461" y="618"></point>
      <point x="386" y="653"></point>
      <point x="316" y="653" type="curve" smooth="yes"></point>
      <point x="228" y="653"></point>
      <point x="147" y="579"></point>
    </contour>
  </outline>
</glyph>
<glyph name="cent" format="1">
  <advance width="566"></advance>
  <unicode hex="00A2"></unicode>
  <outline>
    <contour>
      <point x="369" y="1391" type="line"></point>
      <point x="258" y="1391" type="line"></point>
      <point x="205" y="1042" type="line"></point>
      <point x="369" y="1042" type="line"></point>
    </contour>
    <contour>
      <point x="188" y="-310" type="line"></point>
      <point x="302" y="-310" type="line"></point>
      <point x="352" y="62" type="line"></point>
      <point x="188" y="62" type="line"></point>
    </contour>
    <component base="c"></component>
  </outline>
</glyph>
<glyph name="sterling" format="1">
  <advance width="1030"></advance>
  <unicode hex="00A3"></unicode>
  <outline>
    <contour>
      <point x="27" y="0" type="line"></point>
      <point x="16" y="115" type="line"></point>
      <point x="187" y="132" type="line"></point>
      <point x="187" y="683" type="line"></point>
      <point x="16" y="683" type="line"></point>
      <point x="16" y="806" type="line"></point>
      <point x="187" y="806" type="line"></point>
      <point x="187" y="961" type="line" smooth="yes"></point>
      <point x="187" y="1224"></point>
      <point x="252" y="1517"></point>
      <point x="605" y="1517" type="curve" smooth="yes"></point>
      <point x="749" y="1517"></point>
      <point x="861" y="1462"></point>
      <point x="946" y="1388" type="curve"></point>
      <point x="878" y="1270" type="line"></point>
      <point x="792" y="1338"></point>
      <point x="707" y="1375"></point>
      <point x="605" y="1375" type="curve" smooth="yes"></point>
      <point x="404" y="1375"></point>
      <point x="363" y="1220"></point>
      <point x="363" y="990" type="curve" smooth="yes"></point>
      <point x="363" y="806" type="line"></point>
      <point x="746" y="806" type="line"></point>
      <point x="746" y="683" type="line"></point>
      <point x="363" y="683" type="line"></point>
      <point x="363" y="134" type="line"></point>
      <point x="960" y="134" type="line"></point>
      <point x="947" y="0" type="line"></point>
    </contour>
  </outline>
</glyph>
<glyph name="currency" format="1">
  <advance width="1116"></advance>
  <unicode hex="00A4"></unicode>
  <outline>
    <contour>
      <point x="538" y="398" type="curve" smooth="yes"></point>
      <point x="351" y="398"></point>
      <point x="233" y="545"></point>
      <point x="233" y="719" type="curve" smooth="yes"></point>
      <point x="233" y="892"></point>
      <point x="351" y="1041"></point>
      <point x="538" y="1041" type="curve" smooth="yes"></point>
      <point x="726" y="1041"></point>
      <point x="844" y="892"></point>
      <point x="844" y="719" type="curve" smooth="yes"></point>
      <point x="844" y="546"></point>
      <point x="727" y="398"></point>
    </contour>
    <contour>
      <point x="978" y="225" type="line"></point>
      <point x="1038" y="292" type="line"></point>
      <point x="860" y="469" type="line"></point>
      <point x="913" y="540"></point>
      <point x="940" y="625"></point>
      <point x="940" y="719" type="curve" smooth="yes"></point>
      <point x="940" y="808"></point>
      <point x="913" y="893"></point>
      <point x="859" y="969" type="curve"></point>
      <point x="1039" y="1145" type="line"></point>
      <point x="978" y="1212" type="line"></point>
      <point x="797" y="1038" type="line"></point>
      <point x="726" y="1098"></point>
      <point x="636" y="1133"></point>
      <point x="538" y="1133" type="curve" smooth="yes"></point>
      <point x="440" y="1133"></point>
      <point x="350" y="1100"></point>
      <point x="278" y="1039" type="curve"></point>
      <point x="99" y="1212" type="line"></point>
      <point x="35" y="1148" type="line"></point>
      <point x="217" y="969" type="line"></point>
      <point x="163" y="896"></point>
      <point x="136" y="810"></point>
      <point x="136" y="719" type="curve" smooth="yes"></point>
      <point x="136" y="627"></point>
      <point x="163" y="542"></point>
      <point x="217" y="469" type="curve"></point>
      <point x="36" y="293" type="line"></point>
      <point x="99" y="226" type="line"></point>
      <point x="279" y="400" type="line"></point>
      <point x="351" y="339"></point>
      <point x="438" y="307"></point>
      <point x="538" y="307" type="curve" smooth="yes"></point>
      <point x="637" y="307"></point>
      <point x="726" y="340"></point>
      <point x="797" y="399" type="curve"></point>
    </contour>
  </outline>
</glyph>
<glyph name="yen" format="1">
  <advance width="956"></advance>
  <unicode hex="00A5"></unicode>
  <outline>
    <contour>
      <point x="889" y="291" type="line"></point>
      <point x="889" y="398" type="line"></point>
      <point x="526" y="398" type="line"></point>
      <point x="526" y="589" type="line"></point>
      <point x="888" y="589" type="line"></point>
      <point x="888" y="696" type="line"></point>
      <point x="82" y="696" type="line"></point>
      <point x="82" y="589" type="line"></point>
      <point x="462" y="589" type="line"></point>
      <point x="462" y="398" type="line"></point>
      <point x="80" y="398" type="line"></point>
      <point x="80" y="291" type="line"></point>
    </contour>
    <component base="Y"></component>
  </outline>
</glyph>
<glyph name="section" format="1">
  <advance width="959"></advance>
  <unicode hex="00A7"></unicode>
  <outline>
    <contour>
      <point x="272" y="1226" type="curve" smooth="yes"></point>
      <point x="272" y="1326"></point>
      <point x="325" y="1388"></point>
      <point x="486" y="1388" type="curve" smooth="yes"></point>
      <point x="597" y="1388"></point>
      <point x="694" y="1347"></point>
      <point x="753" y="1317" type="curve"></point>
      <point x="792" y="1443" type="line"></point>
      <point x="701" y="1489"></point>
      <point x="595" y="1519"></point>
      <point x="469" y="1519" type="curve" smooth="yes"></point>
      <point x="242" y="1519"></point>
      <point x="119" y="1396"></point>
      <point x="119" y="1223" type="curve" smooth="yes"></point>
      <point x="119" y="1140"></point>
      <point x="138" y="1074"></point>
      <point x="203" y="1019" type="curve"></point>
      <point x="148" y="968"></point>
      <point x="119" y="895"></point>
      <point x="119" y="812" type="curve" smooth="yes"></point>
      <point x="119" y="680"></point>
      <point x="167" y="590"></point>
      <point x="368" y="524" type="curve" smooth="yes"></point>
      <point x="484" y="486" type="line" smooth="yes"></point>
      <point x="643" y="434"></point>
      <point x="687" y="380"></point>
      <point x="687" y="299" type="curve" smooth="yes"></point>
      <point x="687" y="175"></point>
      <point x="612" y="109"></point>
      <point x="485" y="109" type="curve" smooth="yes"></point>
      <point x="369" y="109"></point>
      <point x="265" y="142"></point>
      <point x="142" y="202" type="curve"></point>
      <point x="142" y="60" type="line"></point>
      <point x="245" y="10"></point>
      <point x="363" y="-20"></point>
      <point x="473" y="-20" type="curve" smooth="yes"></point>
      <point x="667" y="-20"></point>
      <point x="834" y="72"></point>
      <point x="834" y="296" type="curve" smooth="yes"></point>
      <point x="834" y="386"></point>
      <point x="818" y="451"></point>
      <point x="767" y="505" type="curve"></point>
      <point x="809" y="554"></point>
      <point x="834" y="621"></point>
      <point x="834" y="707" type="curve" smooth="yes"></point>
      <point x="834" y="874"></point>
      <point x="781" y="957"></point>
      <point x="544" y="1033" type="curve" smooth="yes"></point>
      <point x="439" y="1067" type="line" smooth="yes"></point>
      <point x="303" y="1111"></point>
      <point x="272" y="1137"></point>
    </contour>
    <contour>
      <point x="337" y="947" type="curve"></point>
      <point x="347" y="942"></point>
      <point x="357" y="938"></point>
      <point x="368" y="935" type="curve" smooth="yes"></point>
      <point x="484" y="897" type="line" smooth="yes"></point>
      <point x="643" y="845"></point>
      <point x="687" y="791"></point>
      <point x="687" y="710" type="curve" smooth="yes"></point>
      <point x="687" y="657"></point>
      <point x="673" y="613"></point>
      <point x="647" y="583" type="curve"></point>
      <point x="617" y="596"></point>
      <point x="583" y="609"></point>
      <point x="544" y="622" type="curve" smooth="yes"></point>
      <point x="439" y="655" type="line" smooth="yes"></point>
      <point x="303" y="700"></point>
      <point x="272" y="726"></point>
      <point x="272" y="815" type="curve" smooth="yes"></point>
      <point x="272" y="875"></point>
      <point x="289" y="918"></point>
    </contour>
  </outline>
</glyph>
<glyph name="dieresis" format="1">
  <advance width="853"></advance>
  <unicode hex="00A8"></unicode>
  <unicode hex="0308"></unicode>
  <outline>
    <contour>
      <point x="332" y="1388" type="curve" smooth="yes"></point>
      <point x="384" y="1388"></point>
      <point x="425" y="1349"></point>
      <point x="425" y="1292" type="curve" smooth="yes"></point>
      <point x="425" y="1236"></point>
      <point x="384" y="1196"></point>
      <point x="332" y="1196" type="curve" smooth="yes"></point>
      <point x="278" y="1196"></point>
      <point x="239" y="1236"></point>
      <point x="239" y="1292" type="curve" smooth="yes"></point>
      <point x="239" y="1349"></point>
      <point x="278" y="1388"></point>
    </contour>
    <contour>
      <point x="787" y="1292" type="curve" smooth="yes"></point>
      <point x="787" y="1236"></point>
      <point x="747" y="1196"></point>
      <point x="694" y="1196" type="curve" smooth="yes"></point>
      <point x="641" y="1196"></point>
      <point x="602" y="1236"></point>
      <point x="602" y="1292" type="curve" smooth="yes"></point>
      <point x="602" y="1349"></point>
      <point x="641" y="1388"></point>
      <point x="694" y="1388" type="curve" smooth="yes"></point>
      <point x="747" y="1388"></point>
      <point x="787" y="1349"></point>
    </contour>
    <contour>
      <point x="520" y="1054.55" type="move" name="_top"></point>
    </contour>
  </outline>
</glyph>
<glyph name="copyright" format="1">
  <advance width="1631"></advance>
  <unicode hex="00A9"></unicode>
  <outline>
    <contour>
      <point x="709" y="-21" type="curve" smooth="yes"></point>
      <point x="1088" y="-21"></point>
      <point x="1468" y="242"></point>
      <point x="1468" y="749" type="curve" smooth="yes"></point>
      <point x="1468" y="1256"></point>
      <point x="1087" y="1519"></point>
      <point x="709" y="1519" type="curve" smooth="yes"></point>
      <point x="333" y="1519"></point>
      <point x="-43" y="1256"></point>
      <point x="-43" y="749" type="curve" smooth="yes"></point>
      <point x="-43" y="242"></point>
      <point x="333" y="-21"></point>
    </contour>
    <contour>
      <point x="709" y="65" type="curve" smooth="yes"></point>
      <point x="377" y="65"></point>
      <point x="59" y="303"></point>
      <point x="59" y="749" type="curve" smooth="yes"></point>
      <point x="59" y="1194"></point>
      <point x="377" y="1430"></point>
      <point x="709" y="1430" type="curve" smooth="yes"></point>
      <point x="1042" y="1430"></point>
      <point x="1364" y="1194"></point>
      <point x="1364" y="749" type="curve" smooth="yes"></point>
      <point x="1364" y="304"></point>
      <point x="1042" y="65"></point>
    </contour>
    <contour>
      <point x="729" y="240" type="curve" smooth="yes"></point>
      <point x="827" y="240"></point>
      <point x="924" y="269"></point>
      <point x="1010" y="325" type="curve"></point>
      <point x="975" y="411" type="line"></point>
      <point x="891" y="358"></point>
      <point x="811" y="339"></point>
      <point x="733" y="339" type="curve" smooth="yes"></point>
      <point x="533" y="339"></point>
      <point x="375" y="496"></point>
      <point x="375" y="751" type="curve" smooth="yes"></point>
      <point x="375" y="986"></point>
      <point x="532" y="1152"></point>
      <point x="725" y="1152" type="curve" smooth="yes"></point>
      <point x="797" y="1152"></point>
      <point x="891" y="1126"></point>
      <point x="964" y="1070" type="curve"></point>
      <point x="1007" y="1159" type="line"></point>
      <point x="919" y="1221"></point>
      <point x="821" y="1251"></point>
      <point x="721" y="1251" type="curve" smooth="yes"></point>
      <point x="466" y="1251"></point>
      <point x="254" y="1034"></point>
      <point x="254" y="746" type="curve" smooth="yes"></point>
      <point x="254" y="449"></point>
      <point x="471" y="240"></point>
    </contour>
  </outline>
</glyph>
<glyph name="guillemotleft" format="1">
  <advance width="927"></advance>
  <unicode hex="00AB"></unicode>
  <outline>
    <contour>
      <point x="345" y="148" type="line"></point>
      <point x="502" y="148" type="line"></point>
      <point x="226" y="552" type="line"></point>
      <point x="510" y="953" type="line"></point>
      <point x="349" y="953" type="line"></point>
      <point x="61" y="549" type="line"></point>
    </contour>
    <contour>
      <point x="698" y="148" type="line"></point>
      <point x="855" y="148" type="line"></point>
      <point x="578" y="552" type="line"></point>
      <point x="862" y="953" type="line"></point>
      <point x="701" y="953" type="line"></point>
      <point x="414" y="549" type="line"></point>
    </contour>
  </outline>
</glyph>
<glyph name="logicalnot" format="1">
  <advance width="1226"/>
  <unicode hex="00AC"/>
  <outline>
    <contour>
      <point x="928" y="253" type="line"/>
      <point x="1049" y="253" type="line"/>
      <point x="1049" y="804" type="line"/>
      <point x="93" y="804" type="line"/>
      <point x="93" y="676" type="line"/>
      <point x="928" y="676" type="line"/>
    </contour>
  </outline>
</glyph>
<glyph name="registered" format="1">
  <advance width="1674"></advance>
  <unicode hex="00AE"></unicode>
  <outline>
    <contour>
      <point x="856" y="-20" type="curve" smooth="yes"></point>
      <point x="1232" y="-20"></point>
      <point x="1609" y="243"></point>
      <point x="1609" y="749" type="curve" smooth="yes"></point>
      <point x="1609" y="1253"></point>
      <point x="1232" y="1517"></point>
      <point x="856" y="1517" type="curve" smooth="yes"></point>
      <point x="481" y="1517"></point>
      <point x="105" y="1253"></point>
      <point x="105" y="749" type="curve" smooth="yes"></point>
      <point x="105" y="243"></point>
      <point x="481" y="-20"></point>
    </contour>
    <contour>
      <point x="856" y="66" type="curve" smooth="yes"></point>
      <point x="525" y="66"></point>
      <point x="209" y="304"></point>
      <point x="209" y="749" type="curve" smooth="yes"></point>
      <point x="209" y="1192"></point>
      <point x="525" y="1430"></point>
      <point x="856" y="1430" type="curve" smooth="yes"></point>
      <point x="1187" y="1430"></point>
      <point x="1506" y="1191"></point>
      <point x="1506" y="748" type="curve" smooth="yes"></point>
      <point x="1506" y="304"></point>
      <point x="1187" y="66"></point>
    </contour>
    <contour>
      <point x="675" y="841" type="line"></point>
      <point x="675" y="1142" type="line"></point>
      <point x="863" y="1142" type="line" smooth="yes"></point>
      <point x="1024" y="1142"></point>
      <point x="1084" y="1124"></point>
      <point x="1084" y="995" type="curve" smooth="yes"></point>
      <point x="1084" y="885"></point>
      <point x="1040" y="841"></point>
      <point x="899" y="841" type="curve" smooth="yes"></point>
    </contour>
    <contour>
      <point x="563" y="301" type="line"></point>
      <point x="674" y="301" type="line"></point>
      <point x="674" y="741" type="line"></point>
      <point x="890" y="741" type="line"></point>
      <point x="899" y="730"></point>
      <point x="1101" y="301"></point>
      <point x="1101" y="301" type="curve"></point>
      <point x="1225" y="301" type="line"></point>
      <point x="1225" y="301"></point>
      <point x="1017" y="733"></point>
      <point x="1001" y="756" type="curve"></point>
      <point x="1131" y="770"></point>
      <point x="1192" y="860"></point>
      <point x="1192" y="999" type="curve" smooth="yes"></point>
      <point x="1192" y="1166"></point>
      <point x="1111" y="1243"></point>
      <point x="879" y="1243" type="curve" smooth="yes"></point>
      <point x="563" y="1243" type="line"></point>
    </contour>
  </outline>
</glyph>
<glyph name="degree" format="1">
  <advance width="850"></advance>
  <unicode hex="00B0"></unicode>
  <outline>
    <contour>
      <point x="424" y="907" type="curve" smooth="yes"></point>
      <point x="588" y="907"></point>
      <point x="725" y="1034"></point>
      <point x="725" y="1202" type="curve" smooth="yes"></point>
      <point x="725" y="1375"></point>
      <point x="584" y="1494"></point>
      <point x="424" y="1494" type="curve" smooth="yes"></point>
      <point x="267" y="1494"></point>
      <point x="125" y="1375"></point>
      <point x="125" y="1202" type="curve" smooth="yes"></point>
      <point x="125" y="1027"></point>
      <point x="267" y="907"></point>
    </contour>
    <contour>
      <point x="424" y="1003" type="curve" smooth="yes"></point>
      <point x="318" y="1003"></point>
      <point x="233" y="1083"></point>
      <point x="233" y="1201" type="curve" smooth="yes"></point>
      <point x="233" y="1318"></point>
      <point x="320" y="1398"></point>
      <point x="425" y="1398" type="curve" smooth="yes"></point>
      <point x="531" y="1398"></point>
      <point x="617" y="1318"></point>
      <point x="617" y="1201" type="curve" smooth="yes"></point>
      <point x="617" y="1084"></point>
      <point x="531" y="1003"></point>
    </contour>
  </outline>
</glyph>
<glyph name="plusminus" format="1">
  <advance width="1081"></advance>
  <unicode hex="00B1"></unicode>
  <outline>
    <contour>
      <point x="473" y="212" type="line"></point>
      <point x="599" y="212" type="line"></point>
      <point x="599" y="610" type="line"></point>
      <point x="964" y="610" type="line"></point>
      <point x="964" y="729" type="line"></point>
      <point x="598" y="729" type="line"></point>
      <point x="598" y="1117" type="line"></point>
      <point x="473" y="1117" type="line"></point>
      <point x="473" y="729" type="line"></point>
      <point x="101" y="729" type="line"></point>
      <point x="101" y="610" type="line"></point>
      <point x="473" y="610" type="line"></point>
    </contour>
    <contour>
      <point x="80" y="0" type="line"></point>
      <point x="80" y="118" type="line"></point>
      <point x="1009" y="118" type="line"></point>
      <point x="1009" y="0" type="line"></point>
    </contour>
  </outline>
</glyph>
<glyph name="uni00B2" format="1">
  <advance width="772"></advance>
  <unicode hex="00B2"></unicode>
  <outline>
    <contour>
      <point x="648" y="649" type="line"></point>
      <point x="133" y="649" type="line"></point>
      <point x="133" y="741" type="line"></point>
      <point x="373" y="988"></point>
      <point x="547" y="1144"></point>
      <point x="547" y="1269" type="curve" smooth="yes"></point>
      <point x="547" y="1378"></point>
      <point x="479" y="1425"></point>
      <point x="402" y="1425" type="curve" smooth="yes"></point>
      <point x="320" y="1425"></point>
      <point x="240" y="1388"></point>
      <point x="176" y="1300" type="curve"></point>
      <point x="105" y="1360" type="line"></point>
      <point x="156" y="1459"></point>
      <point x="277" y="1525"></point>
      <point x="390" y="1525" type="curve" smooth="yes"></point>
      <point x="545" y="1525"></point>
      <point x="659" y="1441"></point>
      <point x="659" y="1278" type="curve" smooth="yes"></point>
      <point x="659" y="1085"></point>
      <point x="488" y="947"></point>
      <point x="276" y="748" type="curve"></point>
      <point x="648" y="748" type="line"></point>
    </contour>
  </outline>
</glyph>
<glyph name="uni00B3" format="1">
  <advance width="767"></advance>
  <unicode hex="00B3"></unicode>
  <outline>
    <contour>
      <point x="391" y="615" type="curve" smooth="yes"></point>
      <point x="536" y="615"></point>
      <point x="652" y="712"></point>
      <point x="652" y="873" type="curve" smooth="yes"></point>
      <point x="652" y="973"></point>
      <point x="594" y="1053"></point>
      <point x="489" y="1084" type="curve"></point>
      <point x="595" y="1111"></point>
      <point x="633" y="1198"></point>
      <point x="633" y="1262" type="curve" smooth="yes"></point>
      <point x="633" y="1419"></point>
      <point x="511" y="1496"></point>
      <point x="386" y="1496" type="curve" smooth="yes"></point>
      <point x="299" y="1496"></point>
      <point x="184" y="1461"></point>
      <point x="128" y="1399" type="curve"></point>
      <point x="182" y="1310" type="line"></point>
      <point x="222" y="1351"></point>
      <point x="314" y="1381"></point>
      <point x="381" y="1381" type="curve" smooth="yes"></point>
      <point x="451" y="1381"></point>
      <point x="502" y="1342"></point>
      <point x="502" y="1260" type="curve" smooth="yes"></point>
      <point x="502" y="1177"></point>
      <point x="425" y="1135"></point>
      <point x="325" y="1135" type="curve" smooth="yes"></point>
      <point x="254" y="1135" type="line"></point>
      <point x="254" y="1019" type="line"></point>
      <point x="328" y="1019" type="line" smooth="yes"></point>
      <point x="438" y="1019"></point>
      <point x="521" y="972"></point>
      <point x="521" y="877" type="curve" smooth="yes"></point>
      <point x="521" y="778"></point>
      <point x="458" y="731"></point>
      <point x="379" y="731" type="curve" smooth="yes"></point>
      <point x="317" y="731"></point>
      <point x="228" y="757"></point>
      <point x="179" y="803" type="curve"></point>
      <point x="130" y="704" type="line"></point>
      <point x="190" y="641"></point>
      <point x="309" y="615"></point>
    </contour>
  </outline>
</glyph>
<glyph name="acute" format="1">
  <advance width="693"></advance>
  <unicode hex="00B4"></unicode>
  <unicode hex="0301"></unicode>
  <outline>
    <contour>
      <point x="182" y="1058" type="line"></point>
      <point x="279" y="1058" type="line"></point>
      <point x="571" y="1470" type="line"></point>
      <point x="365" y="1470" type="line"></point>
    </contour>
    <contour>
      <point x="225" y="945.25" type="move" name="_top"></point>
    </contour>
  </outline>
</glyph>
<glyph name="paragraph" format="1">
  <advance width="1063"></advance>
  <unicode hex="00B6"></unicode>
  <outline>
    <contour>
      <point x="456" y="0" type="line"></point>
      <point x="580" y="0" type="line"></point>
      <point x="580" y="1375" type="line"></point>
      <point x="756" y="1375" type="line"></point>
      <point x="756" y="0" type="line"></point>
      <point x="880" y="0" type="line"></point>
      <point x="880" y="1375" type="line"></point>
      <point x="996" y="1375" type="line"></point>
      <point x="996" y="1496" type="line"></point>
      <point x="487" y="1496" type="line" smooth="yes"></point>
      <point x="167" y="1496"></point>
      <point x="74" y="1316"></point>
      <point x="74" y="1157" type="curve" smooth="yes"></point>
      <point x="74" y="982"></point>
      <point x="175" y="811"></point>
      <point x="456" y="811" type="curve"></point>
    </contour>
  </outline>
</glyph>
<glyph name="periodcentered" format="1">
  <advance width="558"></advance>
  <unicode hex="00B7"></unicode>
  <outline>
    <contour>
      <point x="280" y="732" type="curve" smooth="yes"></point>
      <point x="343" y="732"></point>
      <point x="391" y="688"></point>
      <point x="391" y="624" type="curve" smooth="yes"></point>
      <point x="391" y="559"></point>
      <point x="343" y="514"></point>
      <point x="280" y="514" type="curve" smooth="yes"></point>
      <point x="216" y="514"></point>
      <point x="169" y="559"></point>
      <point x="169" y="624" type="curve" smooth="yes"></point>
      <point x="169" y="688"></point>
      <point x="216" y="732"></point>
    </contour>
    <contour>
      <point x="281" y="622.65" type="move" name="_mid"></point>
    </contour>
  </outline>
</glyph>
<glyph name="uni00B9" format="1">
  <advance width="767"></advance>
  <unicode hex="00B9"></unicode>
  <outline>
    <contour>
      <point x="163" y="598" type="line"></point>
      <point x="594" y="598" type="line"></point>
      <point x="594" y="710" type="line"></point>
      <point x="455" y="710" type="line"></point>
      <point x="455" y="1482" type="line"></point>
      <point x="345" y="1482" type="line"></point>
      <point x="303" y="1442"></point>
      <point x="189" y="1391"></point>
      <point x="153" y="1378" type="curve"></point>
      <point x="153" y="1264" type="line"></point>
      <point x="187" y="1277"></point>
      <point x="280" y="1314"></point>
      <point x="317" y="1338" type="curve"></point>
      <point x="317" y="710" type="line"></point>
      <point x="163" y="710" type="line"></point>
    </contour>
  </outline>
</glyph>
<glyph name="ordmasculine" format="1">
  <advance width="906"/>
  <unicode hex="00BA"/>
  <outline>
    <contour>
      <point x="797" y="1114" type="curve" smooth="yes"/>
      <point x="797" y="1339"/>
      <point x="685" y="1499"/>
      <point x="461" y="1499" type="curve" smooth="yes"/>
      <point x="243" y="1499"/>
      <point x="125" y="1336"/>
      <point x="125" y="1114" type="curve" smooth="yes"/>
      <point x="125" y="897"/>
      <point x="243" y="735"/>
      <point x="461" y="735" type="curve" smooth="yes"/>
      <point x="667" y="735"/>
      <point x="797" y="900"/>
    </contour>
    <contour>
      <point x="262" y="1114" type="curve" smooth="yes"/>
      <point x="262" y="1287"/>
      <point x="329" y="1392"/>
      <point x="461" y="1392" type="curve" smooth="yes"/>
      <point x="597" y="1392"/>
      <point x="667" y="1285"/>
      <point x="667" y="1111" type="curve" smooth="yes"/>
      <point x="667" y="942"/>
      <point x="601" y="842"/>
      <point x="461" y="842" type="curve" smooth="yes"/>
      <point x="328" y="842"/>
      <point x="262" y="943"/>
    </contour>
  </outline>
</glyph>
<glyph name="guillemotright" format="1">
  <advance width="959"/>
  <unicode hex="00BB"/>
  <outline>
    <contour>
      <point x="238" y="148" type="line"/>
      <point x="522" y="549" type="line"/>
      <point x="235" y="953" type="line"/>
      <point x="74" y="953" type="line"/>
      <point x="358" y="552" type="line"/>
      <point x="81" y="148" type="line"/>
    </contour>
    <contour>
      <point x="591" y="148" type="line"/>
      <point x="875" y="549" type="line"/>
      <point x="587" y="953" type="line"/>
      <point x="426" y="953" type="line"/>
      <point x="710" y="552" type="line"/>
      <point x="434" y="148" type="line"/>
    </contour>
  </outline>
</glyph>
<glyph name="onequarter" format="1">
  <advance width="1493"></advance>
  <unicode hex="00BC"></unicode>
  <outline>
    <contour>
      <point x="979" y="297" type="line"></point>
      <point x="1217" y="690" type="line"></point>
      <point x="1217" y="297" type="line"></point>
    </contour>
    <contour>
      <point x="231" y="0" type="line"></point>
      <point x="363" y="0" type="line"></point>
      <point x="1270" y="1517" type="line"></point>
      <point x="1139" y="1517" type="line"></point>
    </contour>
    <contour>
      <point x="1218" y="0" type="line"></point>
      <point x="1345" y="0" type="line"></point>
      <point x="1345" y="191" type="line"></point>
      <point x="1467" y="191" type="line"></point>
      <point x="1459" y="297" type="line"></point>
      <point x="1346" y="297" type="line"></point>
      <point x="1346" y="857" type="line"></point>
      <point x="1208" y="857" type="line"></point>
      <point x="840" y="284" type="line"></point>
      <point x="840" y="191" type="line"></point>
      <point x="1218" y="191" type="line"></point>
    </contour>
    <contour>
      <point x="-11" y="613" type="line"></point>
      <point x="417" y="613" type="line"></point>
      <point x="417" y="725" type="line"></point>
      <point x="278" y="725" type="line"></point>
      <point x="278" y="1496" type="line"></point>
      <point x="168" y="1496" type="line"></point>
      <point x="126" y="1457"></point>
      <point x="14" y="1406"></point>
      <point x="-20" y="1393" type="curve"></point>
      <point x="-20" y="1279" type="line"></point>
      <point x="12" y="1292"></point>
      <point x="103" y="1329"></point>
      <point x="140" y="1353" type="curve"></point>
      <point x="140" y="725" type="line"></point>
      <point x="-11" y="725" type="line"></point>
    </contour>
  </outline>
</glyph>
<glyph name="onehalf" format="1">
  <advance width="1493"/>
  <unicode hex="00BD"/>
  <outline>
    <contour>
      <point x="199" y="6" type="line"/>
      <point x="332" y="6" type="line"/>
      <point x="1240" y="1516" type="line"/>
      <point x="1107" y="1516" type="line"/>
    </contour>
    <contour>
      <point x="919" y="-9" type="line"/>
      <point x="1440" y="-9" type="line"/>
      <point x="1446" y="105" type="line"/>
      <point x="1096" y="105" type="line"/>
      <point x="1267" y="272" type="line" smooth="yes"/>
      <point x="1391" y="393"/>
      <point x="1454" y="465"/>
      <point x="1454" y="606" type="curve" smooth="yes"/>
      <point x="1454" y="773"/>
      <point x="1323" y="862"/>
      <point x="1171" y="862" type="curve" smooth="yes"/>
      <point x="1056" y="862"/>
      <point x="931" y="803"/>
      <point x="878" y="707" type="curve"/>
      <point x="950" y="628" type="line"/>
      <point x="1008" y="707"/>
      <point x="1091" y="742"/>
      <point x="1169" y="742" type="curve" smooth="yes"/>
      <point x="1251" y="742"/>
      <point x="1322" y="696"/>
      <point x="1322" y="598" type="curve" smooth="yes"/>
      <point x="1322" y="527"/>
      <point x="1282" y="465"/>
      <point x="1167" y="349" type="curve" smooth="yes"/>
      <point x="919" y="101" type="line"/>
    </contour>
    <contour>
      <point x="-17" y="613" type="line"/>
      <point x="410" y="613" type="line"/>
      <point x="410" y="725" type="line"/>
      <point x="271" y="725" type="line"/>
      <point x="271" y="1497" type="line"/>
      <point x="161" y="1497" type="line"/>
      <point x="119" y="1457"/>
      <point x="7" y="1407"/>
      <point x="-27" y="1393" type="curve"/>
      <point x="-27" y="1279" type="line"/>
      <point x="5" y="1292"/>
      <point x="96" y="1330"/>
      <point x="133" y="1353" type="curve"/>
      <point x="133" y="725" type="line"/>
      <point x="-17" y="725" type="line"/>
    </contour>
  </outline>
</glyph>
<glyph name="threequarters" format="1">
  <advance width="1386"/>
  <unicode hex="00BE"/>
  <outline>
    <contour>
      <point x="156" y="630" type="curve" smooth="yes"/>
      <point x="301" y="630"/>
      <point x="417" y="728"/>
      <point x="417" y="889" type="curve" smooth="yes"/>
      <point x="417" y="988"/>
      <point x="359" y="1068"/>
      <point x="254" y="1100" type="curve"/>
      <point x="360" y="1126"/>
      <point x="398" y="1214"/>
      <point x="398" y="1277" type="curve" smooth="yes"/>
      <point x="398" y="1434"/>
      <point x="276" y="1512"/>
      <point x="151" y="1512" type="curve" smooth="yes"/>
      <point x="64" y="1512"/>
      <point x="-47" y="1476"/>
      <point x="-103" y="1414" type="curve"/>
      <point x="-49" y="1325" type="line"/>
      <point x="-10" y="1366"/>
      <point x="79" y="1396"/>
      <point x="146" y="1396" type="curve" smooth="yes"/>
      <point x="216" y="1396"/>
      <point x="267" y="1357"/>
      <point x="267" y="1275" type="curve" smooth="yes"/>
      <point x="267" y="1192"/>
      <point x="190" y="1150"/>
      <point x="90" y="1150" type="curve" smooth="yes"/>
      <point x="20" y="1150" type="line"/>
      <point x="20" y="1034" type="line"/>
      <point x="93" y="1034" type="line" smooth="yes"/>
      <point x="203" y="1034"/>
      <point x="286" y="987"/>
      <point x="286" y="893" type="curve" smooth="yes"/>
      <point x="286" y="793"/>
      <point x="223" y="746"/>
      <point x="144" y="746" type="curve" smooth="yes"/>
      <point x="82" y="746"/>
      <point x="-4" y="773"/>
      <point x="-52" y="818" type="curve"/>
      <point x="-101" y="720" type="line"/>
      <point x="-41" y="656"/>
      <point x="74" y="630"/>
    </contour>
    <contour>
      <point x="1121" y="0" type="line"/>
      <point x="1248" y="0" type="line"/>
      <point x="1248" y="191" type="line"/>
      <point x="1370" y="191" type="line"/>
      <point x="1362" y="297" type="line"/>
      <point x="1249" y="297" type="line"/>
      <point x="1249" y="857" type="line"/>
      <point x="1111" y="857" type="line"/>
      <point x="743" y="284" type="line"/>
      <point x="743" y="191" type="line"/>
      <point x="1121" y="191" type="line"/>
    </contour>
    <contour>
      <point x="882" y="297" type="line"/>
      <point x="1120" y="690" type="line"/>
      <point x="1120" y="297" type="line"/>
    </contour>
    <contour>
      <point x="155" y="0" type="line"/>
      <point x="287" y="0" type="line"/>
      <point x="1194" y="1517" type="line"/>
      <point x="1063" y="1517" type="line"/>
    </contour>
  </outline>
</glyph>
<glyph name="AE" format="1">
  <advance width="1439"></advance>
  <unicode hex="00C6"></unicode>
  <outline>
    <contour>
      <point x="669" y="0" type="line"></point>
      <point x="1459" y="0" type="line"></point>
      <point x="1471" y="137" type="line"></point>
      <point x="838" y="137" type="line"></point>
      <point x="838" y="706" type="line"></point>
      <point x="1388" y="706" type="line"></point>
      <point x="1388" y="842" type="line"></point>
      <point x="838" y="842" type="line"></point>
      <point x="838" y="1361" type="line"></point>
      <point x="1450" y="1361" type="line"></point>
      <point x="1456" y="1496" type="line"></point>
      <point x="585" y="1496" type="line"></point>
      <point x="-56" y="0" type="line"></point>
      <point x="125" y="0" type="line"></point>
      <point x="326" y="482" type="line"></point>
      <point x="669" y="482" type="line"></point>
    </contour>
    <contour>
      <point x="669" y="607" type="line"></point>
      <point x="374" y="607" type="line"></point>
      <point x="669" y="1341" type="line"></point>
    </contour>
    <contour>
      <point x="995" y="1496.5" type="move" name="top"></point>
    </contour>
  </outline>
</glyph>
<glyph name="multiply" format="1">
  <advance width="877"></advance>
  <unicode hex="00D7"></unicode>
  <outline>
    <contour>
      <point x="748" y="253" type="line"></point>
      <point x="835" y="349" type="line"></point>
      <point x="835" y="349"></point>
      <point x="566" y="645"></point>
      <point x="544" y="667" type="curve"></point>
      <point x="832" y="975" type="line"></point>
      <point x="737" y="1071" type="line"></point>
      <point x="454" y="763" type="line"></point>
      <point x="168" y="1075" type="line"></point>
      <point x="77" y="979" type="line"></point>
      <point x="363" y="667" type="line"></point>
      <point x="67" y="346" type="line"></point>
      <point x="158" y="253" type="line"></point>
      <point x="454" y="570" type="line"></point>
    </contour>
  </outline>
</glyph>
<glyph name="Oslash" format="1">
  <advance width="1066"/>
  <unicode hex="00D8"/>
  <outline>
    <contour>
      <point x="202" y="-228" type="line"/>
      <point x="926" y="1670" type="line"/>
      <point x="824" y="1709" type="line"/>
      <point x="106" y="-194" type="line"/>
    </contour>
    <component base="O"/>
  </outline>
</glyph>
<glyph name="Thorn" format="1">
  <advance width="1066"/>
  <unicode hex="00DE"/>
  <outline>
    <contour>
      <point x="144" y="0" type="line"/>
      <point x="320" y="0" type="line"/>
      <point x="320" y="462" type="line"/>
      <point x="507" y="462" type="line" smooth="yes"/>
      <point x="845" y="462"/>
      <point x="969" y="588"/>
      <point x="969" y="835" type="curve" smooth="yes"/>
      <point x="969" y="1093"/>
      <point x="781" y="1170"/>
      <point x="510" y="1170" type="curve" smooth="yes"/>
      <point x="320" y="1170" type="line"/>
      <point x="320" y="1496" type="line"/>
      <point x="144" y="1496" type="line"/>
    </contour>
    <contour>
      <point x="320" y="1041" type="line"/>
      <point x="509" y="1041" type="line" smooth="yes"/>
      <point x="689" y="1041"/>
      <point x="793" y="1001"/>
      <point x="793" y="833" type="curve" smooth="yes"/>
      <point x="793" y="646"/>
      <point x="720" y="593"/>
      <point x="503" y="593" type="curve" smooth="yes"/>
      <point x="320" y="593" type="line"/>
    </contour>
  </outline>
</glyph>
<glyph name="germandbls" format="1">
  <advance width="1247"></advance>
  <unicode hex="00DF"></unicode>
  <outline>
    <contour>
      <point x="311" y="1" type="line"></point>
      <point x="147" y="1" type="line"></point>
      <point x="147" y="1088" type="line" smooth="yes"></point>
      <point x="147" y="1382"></point>
      <point x="299" y="1560"></point>
      <point x="596" y="1560" type="curve" smooth="yes"></point>
      <point x="820" y="1560"></point>
      <point x="963" y="1433"></point>
      <point x="963" y="1244" type="curve" smooth="yes"></point>
      <point x="963" y="1029"></point>
      <point x="754" y="917"></point>
      <point x="754" y="824" type="curve" smooth="yes"></point>
      <point x="754" y="705"></point>
      <point x="1146" y="592"></point>
      <point x="1146" y="294" type="curve" smooth="yes"></point>
      <point x="1146" y="102"></point>
      <point x="1024" y="-20"></point>
      <point x="824" y="-20" type="curve" smooth="yes"></point>
      <point x="698" y="-20"></point>
      <point x="559" y="18"></point>
      <point x="481" y="58" type="curve"></point>
      <point x="525" y="183" type="line"></point>
      <point x="581" y="153"></point>
      <point x="694" y="114"></point>
      <point x="805" y="114" type="curve" smooth="yes"></point>
      <point x="933" y="114"></point>
      <point x="986" y="199"></point>
      <point x="986" y="291" type="curve" smooth="yes"></point>
      <point x="986" y="506"></point>
      <point x="602" y="611"></point>
      <point x="602" y="809" type="curve" smooth="yes"></point>
      <point x="602" y="977"></point>
      <point x="806" y="1037"></point>
      <point x="806" y="1245" type="curve" smooth="yes"></point>
      <point x="806" y="1354"></point>
      <point x="738" y="1429"></point>
      <point x="601" y="1429" type="curve" smooth="yes"></point>
      <point x="414" y="1429"></point>
      <point x="311" y="1336"></point>
      <point x="311" y="1092" type="curve" smooth="yes"></point>
    </contour>
  </outline>
</glyph>
<glyph name="ae" format="1">
  <advance width="1599"></advance>
  <unicode hex="00E6"></unicode>
  <outline>
    <contour>
      <point x="859" y="619" type="curve"></point>
      <point x="881" y="855"></point>
      <point x="1002" y="978"></point>
      <point x="1181" y="978" type="curve" smooth="yes"></point>
      <point x="1336" y="978"></point>
      <point x="1422" y="905"></point>
      <point x="1422" y="800" type="curve" smooth="yes"></point>
      <point x="1422" y="661"></point>
      <point x="1259" y="619"></point>
    </contour>
    <contour>
      <point x="1184" y="-20" type="curve" smooth="yes"></point>
      <point x="1343" y="-20"></point>
      <point x="1451" y="17"></point>
      <point x="1545" y="75" type="curve"></point>
      <point x="1510" y="195" type="line"></point>
      <point x="1406" y="139"></point>
      <point x="1322" y="109"></point>
      <point x="1193" y="109" type="curve" smooth="yes"></point>
      <point x="996" y="109"></point>
      <point x="866" y="222"></point>
      <point x="856" y="508" type="curve"></point>
      <point x="1404" y="508"></point>
      <point x="1552" y="594"></point>
      <point x="1552" y="801" type="curve" smooth="yes"></point>
      <point x="1552" y="955"></point>
      <point x="1439" y="1108"></point>
      <point x="1178" y="1108" type="curve" smooth="yes"></point>
      <point x="1035" y="1108"></point>
      <point x="860" y="1023"></point>
      <point x="809" y="855" type="curve"></point>
      <point x="776" y="1036"></point>
      <point x="640" y="1108"></point>
      <point x="458" y="1108" type="curve" smooth="yes"></point>
      <point x="336" y="1108"></point>
      <point x="210" y="1083"></point>
      <point x="96" y="1029" type="curve"></point>
      <point x="141" y="904" type="line"></point>
      <point x="241" y="954"></point>
      <point x="357" y="978"></point>
      <point x="461" y="978" type="curve" smooth="yes"></point>
      <point x="624" y="978"></point>
      <point x="692" y="898"></point>
      <point x="692" y="742" type="curve" smooth="yes"></point>
      <point x="692" y="593" type="line"></point>
      <point x="614" y="603"></point>
      <point x="544" y="607"></point>
      <point x="482" y="607" type="curve" smooth="yes"></point>
      <point x="163" y="607"></point>
      <point x="42" y="482"></point>
      <point x="42" y="293" type="curve" smooth="yes"></point>
      <point x="42" y="92"></point>
      <point x="167" y="-20"></point>
      <point x="358" y="-20" type="curve"></point>
      <point x="629" y="-20"></point>
      <point x="740" y="152"></point>
      <point x="774" y="254" type="curve"></point>
      <point x="816" y="147"></point>
      <point x="909" y="-20"></point>
    </contour>
    <contour>
      <point x="692" y="420" type="line" smooth="yes"></point>
      <point x="692" y="216"></point>
      <point x="567" y="104"></point>
      <point x="366" y="104" type="curve" smooth="yes"></point>
      <point x="273" y="104"></point>
      <point x="200" y="167"></point>
      <point x="200" y="292" type="curve" smooth="yes"></point>
      <point x="200" y="415"></point>
      <point x="262" y="494"></point>
      <point x="492" y="494" type="curve" smooth="yes"></point>
      <point x="548" y="494"></point>
      <point x="615" y="489"></point>
      <point x="692" y="479" type="curve"></point>
    </contour>
    <contour>
      <point x="839" y="1084.95" type="move" name="top"></point>
    </contour>
  </outline>
</glyph>
<glyph name="eth" format="1">
  <advance width="1222"></advance>
  <unicode hex="00F0"></unicode>
  <outline>
    <contour>
      <point x="607" y="109" type="curve" smooth="yes"></point>
      <point x="376" y="109"></point>
      <point x="265" y="295"></point>
      <point x="265" y="489" type="curve" smooth="yes"></point>
      <point x="265" y="697"></point>
      <point x="389" y="854"></point>
      <point x="601" y="854" type="curve" smooth="yes"></point>
      <point x="825" y="854"></point>
      <point x="948" y="681"></point>
      <point x="948" y="499" type="curve" smooth="yes"></point>
      <point x="948" y="263"></point>
      <point x="832" y="109"></point>
    </contour>
    <contour>
      <point x="601" y="-20" type="curve" smooth="yes"></point>
      <point x="933" y="-20"></point>
      <point x="1096" y="203"></point>
      <point x="1096" y="492" type="curve" smooth="yes"></point>
      <point x="1096" y="630"></point>
      <point x="1062" y="771"></point>
      <point x="1011" y="872" type="curve" smooth="yes"></point>
      <point x="945" y="1001"></point>
      <point x="846" y="1132"></point>
      <point x="654" y="1340" type="curve"></point>
      <point x="907" y="1437" type="line"></point>
      <point x="859" y="1544" type="line"></point>
      <point x="570" y="1432" type="line"></point>
      <point x="415" y="1587" type="line"></point>
      <point x="230" y="1587" type="line"></point>
      <point x="446" y="1382" type="line"></point>
      <point x="222" y="1294" type="line"></point>
      <point x="269" y="1184" type="line"></point>
      <point x="525" y="1285" type="line"></point>
      <point x="707" y="1104"></point>
      <point x="807" y="970"></point>
      <point x="860" y="870" type="curve"></point>
      <point x="800" y="916"></point>
      <point x="734" y="977"></point>
      <point x="586" y="977" type="curve" smooth="yes"></point>
      <point x="306" y="977"></point>
      <point x="106" y="782"></point>
      <point x="106" y="490" type="curve" smooth="yes"></point>
      <point x="106" y="222"></point>
      <point x="277" y="-20"></point>
    </contour>
  </outline>
</glyph>
<glyph name="divide" format="1">
  <advance width="1151"></advance>
  <unicode hex="00F7"></unicode>
  <outline>
    <contour>
      <point x="464" y="892" type="line"></point>
      <point x="657" y="892" type="line"></point>
      <point x="657" y="1094" type="line"></point>
      <point x="464" y="1094" type="line"></point>
    </contour>
    <contour>
      <point x="83" y="507" type="line"></point>
      <point x="1034" y="507" type="line"></point>
      <point x="1034" y="645" type="line"></point>
      <point x="83" y="645" type="line"></point>
    </contour>
    <contour>
      <point x="464" y="32" type="line"></point>
      <point x="655" y="32" type="line"></point>
      <point x="655" y="238" type="line"></point>
      <point x="464" y="238" type="line"></point>
    </contour>
  </outline>
</glyph>
<glyph name="Eng" format="1">
  <advance width="1390"></advance>
  <unicode hex="014A"></unicode>
  <outline>
    <contour>
      <point x="820" y="-316" type="curve" smooth="yes"></point>
      <point x="789" y="-316"></point>
      <point x="740" y="-314"></point>
      <point x="602" y="-301" type="curve"></point>
      <point x="580" y="-170" type="line"></point>
      <point x="733" y="-180"></point>
      <point x="743" y="-181"></point>
      <point x="766" y="-181" type="curve" smooth="yes"></point>
      <point x="1058" y="-181"></point>
      <point x="1078" y="-104"></point>
      <point x="1078" y="181" type="curve" smooth="yes"></point>
      <point x="1078" y="1012" type="line" smooth="yes"></point>
      <point x="1078" y="1281"></point>
      <point x="1004" y="1370"></point>
      <point x="782" y="1370" type="curve" smooth="yes"></point>
      <point x="548" y="1370"></point>
      <point x="384" y="1234"></point>
      <point x="290" y="1093" type="curve"></point>
      <point x="290" y="8" type="line"></point>
      <point x="153" y="8" type="line"></point>
      <point x="150" y="1504" type="line"></point>
      <point x="277" y="1504" type="line"></point>
      <point x="293" y="1277" type="line"></point>
      <point x="486" y="1485"></point>
      <point x="659" y="1520"></point>
      <point x="831" y="1520" type="curve" smooth="yes"></point>
      <point x="1084" y="1520"></point>
      <point x="1215" y="1346"></point>
      <point x="1215" y="1016" type="curve" smooth="yes"></point>
      <point x="1215" y="173" type="line" smooth="yes"></point>
      <point x="1215" y="-130"></point>
      <point x="1166" y="-316"></point>
    </contour>
  </outline>
</glyph>
<glyph name="eng" format="1">
  <advance width="1119"/>
  <unicode hex="014B"/>
  <outline>
    <contour>
      <point x="614" y="-282" type="line"/>
      <point x="681" y="-282" type="line" smooth="yes"/>
      <point x="957" y="-282"/>
      <point x="997" y="-129"/>
      <point x="997" y="172" type="curve" smooth="yes"/>
      <point x="997" y="670" type="line" smooth="yes"/>
      <point x="997" y="965"/>
      <point x="894" y="1114"/>
      <point x="650" y="1114" type="curve" smooth="yes"/>
      <point x="498" y="1114"/>
      <point x="388" y="1055"/>
      <point x="313" y="932" type="curve"/>
      <point x="294" y="1093" type="line"/>
      <point x="150" y="1093" type="line"/>
      <point x="150" y="7" type="line"/>
      <point x="317" y="7" type="line"/>
      <point x="317" y="612" type="line" smooth="yes"/>
      <point x="317" y="661"/>
      <point x="320" y="706"/>
      <point x="324" y="750" type="curve"/>
      <point x="355" y="883"/>
      <point x="434" y="984"/>
      <point x="622" y="984" type="curve" smooth="yes"/>
      <point x="792" y="984"/>
      <point x="831" y="871"/>
      <point x="831" y="689" type="curve" smooth="yes"/>
      <point x="831" y="119" type="line" smooth="yes"/>
      <point x="831" y="-100"/>
      <point x="813" y="-129"/>
      <point x="641" y="-129" type="curve" smooth="yes"/>
      <point x="606" y="-129" type="line"/>
    </contour>
  </outline>
</glyph>
<glyph name="OE" format="1">
  <advance width="1173"/>
  <unicode hex="0152"/>
  <outline>
    <contour>
      <point x="996" y="1496" type="line"/>
      <point x="865" y="1496" type="line" smooth="yes"/>
      <point x="403" y="1496"/>
      <point x="112" y="1231"/>
      <point x="112" y="744" type="curve" smooth="yes"/>
      <point x="112" y="232"/>
      <point x="431" y="0"/>
      <point x="894" y="0" type="curve" smooth="yes"/>
      <point x="996" y="0" type="line"/>
    </contour>
    <contour>
      <point x="922" y="135" type="line"/>
      <point x="902" y="135" type="line" smooth="yes"/>
      <point x="513" y="135"/>
      <point x="288" y="315"/>
      <point x="288" y="749" type="curve" smooth="yes"/>
      <point x="288" y="1146"/>
      <point x="484" y="1359"/>
      <point x="875" y="1359" type="curve" smooth="yes"/>
      <point x="922" y="1359" type="line"/>
    </contour>
    <component base="E" xOffset="748"/>
  </outline>
</glyph>
<glyph name="uni0237" format="1">
  <advance width="850"></advance>
  <unicode hex="0237"></unicode>
  <outline>
    <contour>
      <point x="285" y="-455" type="line"></point>
      <point x="342" y="-455" type="line" smooth="yes"></point>
      <point x="596" y="-455"></point>
      <point x="649" y="-370"></point>
      <point x="649" y="-112" type="curve" smooth="yes"></point>
      <point x="649" y="1111" type="line"></point>
      <point x="469" y="1111" type="line"></point>
      <point x="469" y="-87" type="line" smooth="yes"></point>
      <point x="469" y="-123"></point>
      <point x="470" y="-154"></point>
      <point x="470" y="-180" type="curve" smooth="yes"></point>
      <point x="470" y="-277"></point>
      <point x="455" y="-313"></point>
      <point x="312" y="-313" type="curve" smooth="yes"></point>
      <point x="252" y="-313" type="line"></point>
    </contour>
  </outline>
</glyph>
<glyph name="circumflex" format="1">
  <advance width="906"/>
  <unicode hex="02C6"/>
  <outline>
    <contour>
      <point x="239" y="1166" type="line"/>
      <point x="350" y="1166" type="line"/>
      <point x="548" y="1376" type="line"/>
      <point x="742" y="1166" type="line"/>
      <point x="854" y="1166" type="line"/>
      <point x="646" y="1467" type="line"/>
      <point x="459" y="1467" type="line"/>
    </contour>
    <contour>
      <point x="548" y="1004.05" type="move" name="_top"/>
    </contour>
  </outline>
</glyph>
<glyph name="caron" format="1">
  <advance width="959"/>
  <unicode hex="02C7"/>
  <outline>
    <contour>
      <point x="471" y="1134" type="line"/>
      <point x="656" y="1134" type="line"/>
      <point x="901" y="1468" type="line"/>
      <point x="782" y="1468" type="line"/>
      <point x="561" y="1232" type="line"/>
      <point x="357" y="1468" type="line"/>
      <point x="239" y="1468" type="line"/>
    </contour>
    <contour>
      <point x="561" y="1004.85" type="move" name="_top"/>
    </contour>
  </outline>
</glyph>
<glyph name="breve" format="1">
  <advance width="799"/>
  <unicode hex="02D8"/>
  <outline>
    <contour>
      <point x="470" y="1117" type="curve" smooth="yes"/>
      <point x="595" y="1117"/>
      <point x="705" y="1186"/>
      <point x="705" y="1356" type="curve"/>
      <point x="603" y="1356" type="line"/>
      <point x="603" y="1256"/>
      <point x="538" y="1217"/>
      <point x="470" y="1217" type="curve" smooth="yes"/>
      <point x="402" y="1217"/>
      <point x="341" y="1256"/>
      <point x="341" y="1356" type="curve"/>
      <point x="239" y="1356" type="line"/>
      <point x="239" y="1186"/>
      <point x="346" y="1117"/>
    </contour>
    <contour>
      <point x="472" y="1005.275" type="move" name="_top"/>
    </contour>
  </outline>
</glyph>
<glyph name="ring" format="1">
  <advance width="746"/>
  <unicode hex="02DA"/>
  <outline>
    <contour>
      <point x="423" y="1128" type="curve" smooth="yes"/>
      <point x="529" y="1128"/>
      <point x="606" y="1208"/>
      <point x="606" y="1308" type="curve" smooth="yes"/>
      <point x="606" y="1409"/>
      <point x="530" y="1489"/>
      <point x="423" y="1489" type="curve" smooth="yes"/>
      <point x="316" y="1489"/>
      <point x="239" y="1409"/>
      <point x="239" y="1308" type="curve" smooth="yes"/>
      <point x="239" y="1208"/>
      <point x="317" y="1128"/>
    </contour>
    <contour>
      <point x="423" y="1205" type="curve" smooth="yes"/>
      <point x="367" y="1205"/>
      <point x="327" y="1251"/>
      <point x="327" y="1307" type="curve" smooth="yes"/>
      <point x="327" y="1363"/>
      <point x="368" y="1409"/>
      <point x="423" y="1409" type="curve" smooth="yes"/>
      <point x="479" y="1409"/>
      <point x="519" y="1363"/>
      <point x="519" y="1307" type="curve" smooth="yes"/>
      <point x="519" y="1251"/>
      <point x="479" y="1205"/>
    </contour>
    <contour>
      <point x="428" y="1005.0" type="move" name="_top"/>
    </contour>
  </outline>
</glyph>
<glyph name="ogonek" format="1">
  <advance width="721"></advance>
  <unicode hex="02DB"></unicode>
  <outline>
    <contour>
      <point x="559" y="-380" type="curve"></point>
      <point x="557" y="-277" type="line"></point>
      <point x="538" y="-285"></point>
      <point x="491" y="-301"></point>
      <point x="449" y="-301" type="curve" smooth="yes"></point>
      <point x="404" y="-301"></point>
      <point x="366" y="-278"></point>
      <point x="366" y="-220" type="curve" smooth="yes"></point>
      <point x="366" y="-142"></point>
      <point x="453" y="-29"></point>
      <point x="512" y="14" type="curve"></point>
      <point x="432" y="14" type="line"></point>
      <point x="328" y="-28"></point>
      <point x="226" y="-146"></point>
      <point x="226" y="-260" type="curve" smooth="yes"></point>
      <point x="226" y="-351"></point>
      <point x="290" y="-410"></point>
      <point x="415" y="-410" type="curve" smooth="yes"></point>
      <point x="464" y="-410"></point>
      <point x="527" y="-396"></point>
    </contour>
    <contour>
      <point x="467" y="10.25" type="move" name="_ogonek"></point>
    </contour>
  </outline>
</glyph>
<glyph name="tilde" format="1">
  <advance width="863"></advance>
  <unicode hex="02DC"></unicode>
  <outline>
    <contour>
      <point x="314" y="1261" type="line"></point>
      <point x="322" y="1332"></point>
      <point x="347" y="1360"></point>
      <point x="382" y="1360" type="curve" smooth="yes"></point>
      <point x="454" y="1360"></point>
      <point x="573" y="1261"></point>
      <point x="677" y="1261" type="curve" smooth="yes"></point>
      <point x="758" y="1261"></point>
      <point x="817" y="1325"></point>
      <point x="817" y="1465" type="curve"></point>
      <point x="731" y="1465" type="line"></point>
      <point x="723" y="1398"></point>
      <point x="702" y="1378"></point>
      <point x="671" y="1378" type="curve" smooth="yes"></point>
      <point x="609" y="1378"></point>
      <point x="505" y="1466"></point>
      <point x="388" y="1466" type="curve" smooth="yes"></point>
      <point x="294" y="1466"></point>
      <point x="230" y="1402"></point>
      <point x="230" y="1261" type="curve"></point>
    </contour>
    <contour>
      <point x="545" y="1052.925" type="move" name="_top"></point>
    </contour>
  </outline>
</glyph>
<glyph name="hungarumlaut" format="1">
  <advance width="824"></advance>
  <unicode hex="02DD"></unicode>
  <outline>
    <contour>
      <point x="431" y="1058" type="line"></point>
      <point x="517" y="1058" type="line"></point>
      <point x="800" y="1470" type="line"></point>
      <point x="612" y="1470" type="line"></point>
    </contour>
    <contour>
      <point x="175" y="1058" type="line"></point>
      <point x="259" y="1058" type="line"></point>
      <point x="501" y="1470" type="line"></point>
      <point x="325" y="1470" type="line"></point>
    </contour>
    <contour>
      <point x="329" y="945.25" type="move" name="_top"></point>
    </contour>
  </outline>
</glyph>
<glyph name="tildecomb" format="1">
  <advance width="906"></advance>
  <unicode hex="0303"></unicode>
  <outline>
    <contour>
      <point x="323" y="1261" type="line"></point>
      <point x="331" y="1332"></point>
      <point x="356" y="1360"></point>
      <point x="391" y="1360" type="curve" smooth="yes"></point>
      <point x="463" y="1360"></point>
      <point x="582" y="1261"></point>
      <point x="686" y="1261" type="curve" smooth="yes"></point>
      <point x="767" y="1261"></point>
      <point x="826" y="1325"></point>
      <point x="826" y="1465" type="curve"></point>
      <point x="740" y="1465" type="line"></point>
      <point x="732" y="1398"></point>
      <point x="711" y="1378"></point>
      <point x="680" y="1378" type="curve" smooth="yes"></point>
      <point x="618" y="1378"></point>
      <point x="514" y="1466"></point>
      <point x="397" y="1466" type="curve" smooth="yes"></point>
      <point x="303" y="1466"></point>
      <point x="239" y="1402"></point>
      <point x="239" y="1261" type="curve"></point>
    </contour>
    <contour>
      <point x="544" y="1052.925" type="move" name="_top"></point>
    </contour>
  </outline>
</glyph>
<glyph name="uni0304" format="1">
  <advance width="875"></advance>
  <unicode hex="0304"></unicode>
  <outline>
    <contour>
      <point x="226" y="1231" type="line"></point>
      <point x="811" y="1231" type="line"></point>
      <point x="811" y="1353" type="line"></point>
      <point x="226" y="1353" type="line"></point>
    </contour>
    <contour>
      <point x="507" y="1002.425" type="move" name="_top"></point>
    </contour>
  </outline>
</glyph>
<glyph name="uni030A" format="1">
  <advance width="746"></advance>
  <unicode hex="030A"></unicode>
  <outline>
    <contour>
      <point x="423" y="1128" type="curve" smooth="yes"></point>
      <point x="529" y="1128"></point>
      <point x="606" y="1208"></point>
      <point x="606" y="1308" type="curve" smooth="yes"></point>
      <point x="606" y="1409"></point>
      <point x="530" y="1489"></point>
      <point x="423" y="1489" type="curve" smooth="yes"></point>
      <point x="316" y="1489"></point>
      <point x="239" y="1409"></point>
      <point x="239" y="1308" type="curve" smooth="yes"></point>
      <point x="239" y="1208"></point>
      <point x="317" y="1128"></point>
    </contour>
    <contour>
      <point x="423" y="1205" type="curve" smooth="yes"></point>
      <point x="367" y="1205"></point>
      <point x="327" y="1251"></point>
      <point x="327" y="1307" type="curve" smooth="yes"></point>
      <point x="327" y="1363"></point>
      <point x="368" y="1409"></point>
      <point x="423" y="1409" type="curve" smooth="yes"></point>
      <point x="479" y="1409"></point>
      <point x="519" y="1363"></point>
      <point x="519" y="1307" type="curve" smooth="yes"></point>
      <point x="519" y="1251"></point>
      <point x="479" y="1205"></point>
    </contour>
    <contour>
      <point x="424" y="1005.0" type="move" name="_top"></point>
    </contour>
  </outline>
</glyph>
<glyph name="uni030C" format="1">
  <advance width="853"/>
  <unicode hex="030C"/>
  <outline>
    <contour>
      <point x="774" y="1469" type="line"/>
      <point x="663" y="1469" type="line"/>
      <point x="505" y="1188" type="line"/>
      <point x="351" y="1469" type="line"/>
      <point x="239" y="1469" type="line"/>
      <point x="407" y="1087" type="line"/>
      <point x="594" y="1087" type="line"/>
    </contour>
    <contour>
      <point x="505" y="1006.025" type="move" name="_top"/>
    </contour>
  </outline>
</glyph>
<glyph name="uni030F" format="1">
  <advance width="927"></advance>
  <unicode hex="030F"></unicode>
  <outline>
    <contour>
      <point x="567" y="1058" type="line"></point>
      <point x="462" y="1058" type="line"></point>
      <point x="226" y="1470" type="line"></point>
      <point x="389" y="1470" type="line"></point>
    </contour>
    <contour>
      <point x="770" y="1058" type="line"></point>
      <point x="677" y="1058" type="line"></point>
      <point x="499" y="1470" type="line"></point>
      <point x="657" y="1470" type="line"></point>
    </contour>
    <contour>
      <point x="640" y="945.25" type="move" name="_top"></point>
    </contour>
  </outline>
</glyph>
<glyph name="uni0311" format="1">
  <advance width="824"></advance>
  <unicode hex="0311"></unicode>
  <outline>
    <contour>
      <point x="175" y="1058" type="curve"></point>
      <point x="275" y="1058" type="line"></point>
      <point x="275" y="1157"></point>
      <point x="331" y="1205"></point>
      <point x="405" y="1205" type="curve" smooth="yes"></point>
      <point x="478" y="1205"></point>
      <point x="537" y="1157"></point>
      <point x="537" y="1058" type="curve"></point>
      <point x="640" y="1058" type="line"></point>
      <point x="640" y="1229"></point>
      <point x="519" y="1301"></point>
      <point x="404" y="1301" type="curve" smooth="yes"></point>
      <point x="290" y="1301"></point>
      <point x="175" y="1230"></point>
    </contour>
    <contour>
      <point x="406" y="945.25" type="move" name="_top"></point>
    </contour>
  </outline>
</glyph>
<glyph name="uni031B" format="1">
  <advance width="671"></advance>
  <unicode hex="031B"></unicode>
  <outline>
    <contour>
      <point x="328" y="502" type="line"></point>
      <point x="336" y="481"></point>
      <point x="342" y="448"></point>
      <point x="342" y="414" type="curve" smooth="yes"></point>
      <point x="342" y="341"></point>
      <point x="316" y="247"></point>
      <point x="207" y="247" type="curve" smooth="yes"></point>
      <point x="201" y="247"></point>
      <point x="192" y="247"></point>
      <point x="185" y="248" type="curve"></point>
      <point x="185" y="165" type="line"></point>
      <point x="206" y="162"></point>
      <point x="226" y="160"></point>
      <point x="245" y="160" type="curve" smooth="yes"></point>
      <point x="404" y="160"></point>
      <point x="447" y="269"></point>
      <point x="447" y="368" type="curve" smooth="yes"></point>
      <point x="447" y="419"></point>
      <point x="435" y="470"></point>
      <point x="421" y="502" type="curve"></point>
    </contour>
    <contour>
      <point x="189" y="206.125" type="move" name="_hook"></point>
    </contour>
  </outline>
</glyph>
<glyph name="Delta" format="1">
  <advance width="1275"></advance>
  <unicode hex="0394"></unicode>
  <outline>
    <contour>
      <point x="224" y="146" type="line"></point>
      <point x="1038" y="146" type="line"></point>
      <point x="628" y="1307" type="line"></point>
    </contour>
    <contour>
      <point x="10" y="0" type="line"></point>
      <point x="545" y="1482" type="line"></point>
      <point x="711" y="1482" type="line"></point>
      <point x="1252" y="0" type="line"></point>
    </contour>
  </outline>
</glyph>
<glyph name="Lambda" format="1">
  <advance width="1302"></advance>
  <unicode hex="039B"></unicode>
  <outline>
    <contour>
      <point x="23" y="0" type="line"></point>
      <point x="553" y="1482" type="line"></point>
      <point x="730" y="1482" type="line"></point>
      <point x="1265" y="0" type="line"></point>
      <point x="1093" y="0" type="line"></point>
      <point x="641" y="1302" type="line"></point>
      <point x="196" y="0" type="line"></point>
    </contour>
  </outline>
</glyph>
<glyph name="Pi" format="1">
  <advance width="1442"></advance>
  <unicode hex="03A0"></unicode>
  <outline>
    <contour>
      <point x="137" y="0" type="line"></point>
      <point x="137" y="1482" type="line"></point>
      <point x="1275" y="1482" type="line"></point>
      <point x="1275" y="0" type="line"></point>
      <point x="1108" y="0" type="line"></point>
      <point x="1108" y="1336" type="line"></point>
      <point x="306" y="1336" type="line"></point>
      <point x="306" y="0" type="line"></point>
    </contour>
  </outline>
</glyph>
<glyph name="Sigma" format="1">
  <advance width="1116"></advance>
  <unicode hex="03A3"></unicode>
  <outline>
    <contour>
      <point x="157" y="0" type="line"></point>
      <point x="157" y="1469" type="line"></point>
      <point x="1021" y="1469" type="line"></point>
      <point x="1014" y="1331" type="line"></point>
      <point x="315" y="1331" type="line"></point>
      <point x="315" y="828" type="line"></point>
      <point x="954" y="828" type="line"></point>
      <point x="954" y="692" type="line"></point>
      <point x="315" y="692" type="line"></point>
      <point x="315" y="137" type="line"></point>
      <point x="1019" y="137" type="line"></point>
      <point x="1011" y="0" type="line"></point>
    </contour>
  </outline>
</glyph>
<glyph name="Phi" format="1">
  <advance width="1621"></advance>
  <unicode hex="03A6"></unicode>
  <outline>
    <contour>
      <point x="884" y="317" type="line"></point>
      <point x="1195" y="344"></point>
      <point x="1332" y="534"></point>
      <point x="1332" y="766" type="curve" smooth="yes"></point>
      <point x="1332" y="1006"></point>
      <point x="1183" y="1174"></point>
      <point x="884" y="1200" type="curve"></point>
    </contour>
    <contour>
      <point x="716" y="317" type="curve"></point>
      <point x="716" y="1200" type="line"></point>
      <point x="421" y="1173"></point>
      <point x="272" y="1006"></point>
      <point x="272" y="766" type="curve" smooth="yes"></point>
      <point x="272" y="534"></point>
      <point x="409" y="345"></point>
    </contour>
    <contour>
      <point x="716" y="0" type="line"></point>
      <point x="716" y="170" type="line"></point>
      <point x="306" y="200"></point>
      <point x="93" y="447"></point>
      <point x="93" y="766" type="curve" smooth="yes"></point>
      <point x="93" y="1091"></point>
      <point x="320" y="1318"></point>
      <point x="716" y="1347" type="curve"></point>
      <point x="716" y="1482" type="line"></point>
      <point x="884" y="1482" type="line"></point>
      <point x="884" y="1347" type="line"></point>
      <point x="1285" y="1320"></point>
      <point x="1511" y="1092"></point>
      <point x="1511" y="766" type="curve" smooth="yes"></point>
      <point x="1511" y="445"></point>
      <point x="1297" y="198"></point>
      <point x="884" y="170" type="curve"></point>
      <point x="884" y="0" type="line"></point>
    </contour>
  </outline>
</glyph>
<glyph name="Omega" format="1">
  <advance width="1541"></advance>
  <unicode hex="03A9"></unicode>
  <outline>
    <contour>
      <point x="772" y="-20" type="curve" smooth="yes"></point>
      <point x="337" y="-20"></point>
      <point x="80" y="272"></point>
      <point x="80" y="731" type="curve" smooth="yes"></point>
      <point x="80" y="1200"></point>
      <point x="343" y="1492"></point>
      <point x="772" y="1492" type="curve" smooth="yes"></point>
      <point x="1196" y="1492"></point>
      <point x="1463" y="1198"></point>
      <point x="1463" y="730" type="curve" smooth="yes"></point>
      <point x="1463" y="275"></point>
      <point x="1203" y="-20"></point>
    </contour>
    <contour>
      <point x="772" y="158" type="curve" smooth="yes"></point>
      <point x="1082" y="158"></point>
      <point x="1241" y="398"></point>
      <point x="1241" y="730" type="curve" smooth="yes"></point>
      <point x="1241" y="1074"></point>
      <point x="1076" y="1311"></point>
      <point x="772" y="1311" type="curve" smooth="yes"></point>
      <point x="468" y="1311"></point>
      <point x="301" y="1075"></point>
      <point x="301" y="730" type="curve" smooth="yes"></point>
      <point x="301" y="398"></point>
      <point x="462" y="158"></point>
    </contour>
  </outline>
</glyph>
<glyph name="rho" format="1">
  <advance width="1184"></advance>
  <unicode hex="03C1"></unicode>
  <outline>
    <contour>
      <point x="611" y="115" type="curve" smooth="yes"></point>
      <point x="364" y="115"></point>
      <point x="285" y="287"></point>
      <point x="285" y="571" type="curve" smooth="yes"></point>
      <point x="285" y="822"></point>
      <point x="377" y="990"></point>
      <point x="613" y="990" type="curve" smooth="yes"></point>
      <point x="836" y="990"></point>
      <point x="942" y="810"></point>
      <point x="942" y="554" type="curve" smooth="yes"></point>
      <point x="942" y="290"></point>
      <point x="831" y="115"></point>
    </contour>
    <contour>
      <point x="118" y="-464" type="line"></point>
      <point x="285" y="-455" type="line"></point>
      <point x="285" y="-56" type="line" smooth="yes"></point>
      <point x="285" y="18"></point>
      <point x="284" y="91"></point>
      <point x="280" y="166" type="curve"></point>
      <point x="350" y="62"></point>
      <point x="491" y="-12"></point>
      <point x="636" y="-12" type="curve" smooth="yes"></point>
      <point x="912" y="-12"></point>
      <point x="1108" y="224"></point>
      <point x="1108" y="547" type="curve" smooth="yes"></point>
      <point x="1108" y="883"></point>
      <point x="934" y="1119"></point>
      <point x="630" y="1119" type="curve" smooth="yes"></point>
      <point x="482" y="1119"></point>
      <point x="346" y="1046"></point>
      <point x="288" y="908" type="curve"></point>
      <point x="271" y="1096" type="line"></point>
      <point x="118" y="1096" type="line"></point>
    </contour>
  </outline>
</glyph>
<glyph name="afii10059" format="1">
  <advance width="2014"></advance>
  <unicode hex="040A"></unicode>
  <outline>
    <contour>
      <point x="980" y="0" type="line"></point>
      <point x="1448" y="0" type="line" smooth="yes"></point>
      <point x="1812" y="0"></point>
      <point x="1942" y="165"></point>
      <point x="1942" y="417" type="curve" smooth="yes"></point>
      <point x="1942" y="663"></point>
      <point x="1816" y="825"></point>
      <point x="1446" y="825" type="curve" smooth="yes"></point>
      <point x="1155" y="825" type="line"></point>
      <point x="1156" y="1471" type="line"></point>
      <point x="980" y="1471" type="line"></point>
      <point x="980" y="825" type="line"></point>
      <point x="291" y="825" type="line"></point>
      <point x="291" y="1471" type="line"></point>
      <point x="115" y="1471" type="line"></point>
      <point x="115" y="0" type="line"></point>
      <point x="291" y="0" type="line"></point>
      <point x="291" y="694" type="line"></point>
      <point x="980" y="694" type="line"></point>
    </contour>
    <contour>
      <point x="1155" y="694" type="line"></point>
      <point x="1439" y="694" type="line" smooth="yes"></point>
      <point x="1682" y="694"></point>
      <point x="1772" y="623"></point>
      <point x="1772" y="417" type="curve" smooth="yes"></point>
      <point x="1772" y="212"></point>
      <point x="1671" y="131"></point>
      <point x="1441" y="131" type="curve" smooth="yes"></point>
      <point x="1155" y="131" type="line"></point>
    </contour>
  </outline>
</glyph>
<glyph name="afii10060" format="1">
  <advance width="1727"></advance>
  <unicode hex="040B"></unicode>
  <outline>
    <contour>
      <point x="1427" y="0" type="line"></point>
      <point x="1427" y="413" type="line" smooth="yes"></point>
      <point x="1427" y="644"></point>
      <point x="1317" y="714"></point>
      <point x="1108" y="714" type="curve" smooth="yes"></point>
      <point x="800" y="714" type="line"></point>
      <point x="800" y="0" type="line"></point>
      <point x="678" y="0" type="line"></point>
      <point x="678" y="1395" type="line"></point>
      <point x="230" y="1395" type="line"></point>
      <point x="230" y="1485" type="line"></point>
      <point x="1254" y="1485" type="line"></point>
      <point x="1254" y="1395" type="line"></point>
      <point x="800" y="1395" type="line"></point>
      <point x="800" y="811" type="line"></point>
      <point x="1106" y="811" type="line" smooth="yes"></point>
      <point x="1414" y="811"></point>
      <point x="1549" y="674"></point>
      <point x="1549" y="414" type="curve" smooth="yes"></point>
      <point x="1549" y="0" type="line"></point>
    </contour>
  </outline>
</glyph>
<glyph name="afii10145" format="1">
  <advance width="1439"></advance>
  <unicode hex="040F"></unicode>
  <outline>
    <contour>
      <point x="1234" y="1493" type="line"></point>
      <point x="1234" y="7" type="line"></point>
      <point x="776" y="7" type="line"></point>
      <point x="776" y="-294" type="line"></point>
      <point x="654" y="-294" type="line"></point>
      <point x="654" y="7" type="line"></point>
      <point x="160" y="7" type="line"></point>
      <point x="160" y="1493" type="line"></point>
      <point x="282" y="1493" type="line"></point>
      <point x="282" y="97" type="line"></point>
      <point x="1112" y="97" type="line"></point>
      <point x="1112" y="1493" type="line"></point>
    </contour>
  </outline>
</glyph>
<glyph name="afii10018" format="1">
  <advance width="1196"></advance>
  <unicode hex="0411"></unicode>
  <outline>
    <contour>
      <point x="105" y="0" type="line"></point>
      <point x="606" y="0" type="line" smooth="yes"></point>
      <point x="970" y="0"></point>
      <point x="1093" y="174"></point>
      <point x="1093" y="426" type="curve" smooth="yes"></point>
      <point x="1093" y="672"></point>
      <point x="973" y="844"></point>
      <point x="603" y="844" type="curve" smooth="yes"></point>
      <point x="281" y="844" type="line"></point>
      <point x="281" y="1360" type="line"></point>
      <point x="950" y="1360" type="line"></point>
      <point x="950" y="1496" type="line"></point>
      <point x="105" y="1496" type="line"></point>
    </contour>
    <contour>
      <point x="281" y="706" type="line"></point>
      <point x="597" y="706" type="line" smooth="yes"></point>
      <point x="835" y="706"></point>
      <point x="917" y="630"></point>
      <point x="917" y="423" type="curve" smooth="yes"></point>
      <point x="917" y="218"></point>
      <point x="821" y="137"></point>
      <point x="599" y="137" type="curve" smooth="yes"></point>
      <point x="281" y="137" type="line"></point>
    </contour>
  </outline>
</glyph>
<glyph name="afii10021" format="1">
  <advance width="1279"/>
  <unicode hex="0414"/>
  <outline>
    <contour>
      <point x="-84" y="-294" type="line"/>
      <point x="-84" y="98" type="line"/>
      <point x="72" y="98" type="line"/>
      <point x="164" y="164"/>
      <point x="210" y="393"/>
      <point x="262" y="1125" type="curve" smooth="yes"/>
      <point x="289" y="1504" type="line"/>
      <point x="1118" y="1504" type="line"/>
      <point x="1118" y="98" type="line"/>
      <point x="1251" y="98" type="line"/>
      <point x="1251" y="-294" type="line"/>
      <point x="1142" y="-294" type="line"/>
      <point x="1142" y="7" type="line"/>
      <point x="24" y="7" type="line"/>
      <point x="24" y="-294" type="line"/>
    </contour>
    <contour>
      <point x="401" y="1414" type="line"/>
      <point x="376" y="1113" type="line" smooth="yes"/>
      <point x="338" y="659"/>
      <point x="313" y="270"/>
      <point x="221" y="98" type="curve"/>
      <point x="996" y="98" type="line"/>
      <point x="996" y="1415" type="line"/>
    </contour>
  </outline>
</glyph>
<glyph name="afii10029" format="1">
  <advance width="1461"></advance>
  <unicode hex="041B"></unicode>
  <outline>
    <contour>
      <point x="-84" y="-23" type="line"></point>
      <point x="-10" y="-23" type="line" smooth="yes"></point>
      <point x="300" y="-23"></point>
      <point x="388" y="130"></point>
      <point x="388" y="437" type="curve" smooth="yes"></point>
      <point x="388" y="1339" type="line"></point>
      <point x="1107" y="1339" type="line"></point>
      <point x="1107" y="0" type="line"></point>
      <point x="1282" y="0" type="line"></point>
      <point x="1283" y="1470" type="line"></point>
      <point x="212" y="1471" type="line"></point>
      <point x="212" y="412" type="line" smooth="yes"></point>
      <point x="212" y="214"></point>
      <point x="174" y="123"></point>
      <point x="-22" y="123" type="curve" smooth="yes"></point>
      <point x="-84" y="123" type="line"></point>
    </contour>
  </outline>
</glyph>
<glyph name="afii10037" format="1">
  <advance width="927"></advance>
  <unicode hex="0423"></unicode>
  <outline>
    <contour>
      <point x="488" y="624" type="line"></point>
      <point x="871" y="1476" type="line"></point>
      <point x="987" y="1476" type="line"></point>
      <point x="302" y="0" type="line"></point>
      <point x="187" y="0" type="line"></point>
      <point x="437" y="522" type="line"></point>
      <point x="-66" y="1476" type="line"></point>
      <point x="43" y="1476" type="line"></point>
    </contour>
  </outline>
</glyph>
<glyph name="afii10038" format="1">
  <advance width="1596"></advance>
  <unicode hex="0424"></unicode>
  <outline>
    <contour>
      <point x="864" y="262" type="curve"></point>
      <point x="864" y="1215" type="line"></point>
      <point x="1216" y="1180"></point>
      <point x="1370" y="1006"></point>
      <point x="1370" y="738" type="curve" smooth="yes"></point>
      <point x="1370" y="473"></point>
      <point x="1217" y="297"></point>
    </contour>
    <contour>
      <point x="731" y="264" type="line"></point>
      <point x="397" y="303"></point>
      <point x="243" y="474"></point>
      <point x="243" y="738" type="curve" smooth="yes"></point>
      <point x="243" y="1003"></point>
      <point x="396" y="1174"></point>
      <point x="731" y="1213" type="curve"></point>
    </contour>
    <contour>
      <point x="731" y="0" type="line"></point>
      <point x="864" y="0" type="line"></point>
      <point x="864" y="120" type="line"></point>
      <point x="1285" y="152"></point>
      <point x="1533" y="361"></point>
      <point x="1533" y="737" type="curve" smooth="yes"></point>
      <point x="1533" y="1115"></point>
      <point x="1286" y="1326"></point>
      <point x="864" y="1357" type="curve"></point>
      <point x="864" y="1488" type="line"></point>
      <point x="731" y="1488" type="line"></point>
      <point x="731" y="1355" type="line"></point>
      <point x="305" y="1314"></point>
      <point x="80" y="1092"></point>
      <point x="80" y="737" type="curve" smooth="yes"></point>
      <point x="80" y="384"></point>
      <point x="304" y="162"></point>
      <point x="731" y="121" type="curve"></point>
    </contour>
  </outline>
</glyph>
<glyph name="afii10041" format="1">
  <advance width="1184"></advance>
  <unicode hex="0427"></unicode>
  <outline>
    <contour>
      <point x="866" y="0" type="line"></point>
      <point x="1036" y="0" type="line"></point>
      <point x="1036" y="1496" type="line"></point>
      <point x="866" y="1496" type="line"></point>
      <point x="866" y="643" type="line"></point>
      <point x="526" y="643" type="line" smooth="yes"></point>
      <point x="357" y="643"></point>
      <point x="273" y="691"></point>
      <point x="273" y="935" type="curve" smooth="yes"></point>
      <point x="273" y="1496" type="line"></point>
      <point x="99" y="1496" type="line"></point>
      <point x="99" y="897" type="line" smooth="yes"></point>
      <point x="99" y="653"></point>
      <point x="221" y="489"></point>
      <point x="476" y="489" type="curve" smooth="yes"></point>
      <point x="866" y="489" type="line"></point>
    </contour>
  </outline>
</glyph>
<glyph name="afii10042" format="1">
  <advance width="1621"></advance>
  <unicode hex="0428"></unicode>
  <outline>
    <contour>
      <point x="157" y="0" type="line"></point>
      <point x="1450" y="0" type="line"></point>
      <point x="1450" y="1496" type="line"></point>
      <point x="1299" y="1496" type="line"></point>
      <point x="1299" y="144" type="line"></point>
      <point x="874" y="144" type="line"></point>
      <point x="874" y="1496" type="line"></point>
      <point x="723" y="1496" type="line"></point>
      <point x="723" y="144" type="line"></point>
      <point x="308" y="144" type="line"></point>
      <point x="308" y="1496" type="line"></point>
      <point x="157" y="1496" type="line"></point>
    </contour>
  </outline>
</glyph>
<glyph name="afii10043" format="1">
  <advance width="1621"></advance>
  <unicode hex="0429"></unicode>
  <outline>
    <contour>
      <point x="1398" y="-288" type="line"></point>
      <point x="1549" y="-288" type="line"></point>
      <point x="1549" y="166" type="line"></point>
      <point x="1449" y="166" type="line"></point>
      <point x="1449" y="1504" type="line"></point>
      <point x="1298" y="1504" type="line"></point>
      <point x="1298" y="151" type="line"></point>
      <point x="874" y="151" type="line"></point>
      <point x="874" y="1504" type="line"></point>
      <point x="722" y="1504" type="line"></point>
      <point x="722" y="151" type="line"></point>
      <point x="307" y="151" type="line"></point>
      <point x="307" y="1504" type="line"></point>
      <point x="157" y="1504" type="line"></point>
      <point x="157" y="7" type="line"></point>
      <point x="1399" y="7" type="line"></point>
    </contour>
  </outline>
</glyph>
<glyph name="afii10044" format="1">
  <advance width="1184"></advance>
  <unicode hex="042A"></unicode>
  <outline>
    <contour>
      <point x="168" y="0" type="line"></point>
      <point x="641" y="0" type="line" smooth="yes"></point>
      <point x="1005" y="0"></point>
      <point x="1128" y="174"></point>
      <point x="1128" y="426" type="curve" smooth="yes"></point>
      <point x="1128" y="672"></point>
      <point x="1009" y="844"></point>
      <point x="639" y="844" type="curve" smooth="yes"></point>
      <point x="344" y="844" type="line"></point>
      <point x="345" y="1471" type="line"></point>
      <point x="-78" y="1471" type="line"></point>
      <point x="-78" y="1335" type="line"></point>
      <point x="168" y="1336" type="line"></point>
    </contour>
    <contour>
      <point x="344" y="707" type="line"></point>
      <point x="633" y="707" type="line" smooth="yes"></point>
      <point x="871" y="707"></point>
      <point x="952" y="630"></point>
      <point x="952" y="424" type="curve" smooth="yes"></point>
      <point x="952" y="219"></point>
      <point x="856" y="137"></point>
      <point x="634" y="137" type="curve" smooth="yes"></point>
      <point x="344" y="137" type="line"></point>
    </contour>
  </outline>
</glyph>
<glyph name="afii10045" format="1">
  <advance width="1631"></advance>
  <unicode hex="042B"></unicode>
  <outline>
    <contour>
      <point x="141" y="0" type="line"></point>
      <point x="141" y="1484" type="line"></point>
      <point x="263" y="1484" type="line"></point>
      <point x="263" y="840" type="line"></point>
      <point x="608" y="840" type="line" smooth="yes"></point>
      <point x="1002" y="840"></point>
      <point x="1086" y="645"></point>
      <point x="1086" y="426" type="curve" smooth="yes"></point>
      <point x="1086" y="198"></point>
      <point x="1011" y="0"></point>
      <point x="615" y="0" type="curve" smooth="yes"></point>
    </contour>
    <contour>
      <point x="1339" y="0" type="line"></point>
      <point x="1339" y="1485" type="line"></point>
      <point x="1461" y="1485" type="line"></point>
      <point x="1461" y="0" type="line"></point>
    </contour>
    <contour>
      <point x="263" y="743" type="line"></point>
      <point x="263" y="96" type="line"></point>
      <point x="621" y="96" type="line" smooth="yes"></point>
      <point x="871" y="96"></point>
      <point x="964" y="194"></point>
      <point x="964" y="422" type="curve" smooth="yes"></point>
      <point x="964" y="655"></point>
      <point x="879" y="743"></point>
      <point x="607" y="743" type="curve" smooth="yes"></point>
    </contour>
  </outline>
</glyph>
<glyph name="afii10046" format="1">
  <advance width="1151"></advance>
  <unicode hex="042C"></unicode>
  <outline>
    <contour>
      <point x="122" y="0" type="line"></point>
      <point x="618" y="0" type="line" smooth="yes"></point>
      <point x="982" y="0"></point>
      <point x="1105" y="174"></point>
      <point x="1105" y="426" type="curve" smooth="yes"></point>
      <point x="1105" y="672"></point>
      <point x="984" y="844"></point>
      <point x="614" y="844" type="curve" smooth="yes"></point>
      <point x="298" y="844" type="line"></point>
      <point x="298" y="1496" type="line"></point>
      <point x="122" y="1496" type="line"></point>
    </contour>
    <contour>
      <point x="298" y="707" type="line"></point>
      <point x="608" y="707" type="line" smooth="yes"></point>
      <point x="846" y="707"></point>
      <point x="928" y="630"></point>
      <point x="928" y="424" type="curve" smooth="yes"></point>
      <point x="928" y="219"></point>
      <point x="832" y="137"></point>
      <point x="610" y="137" type="curve" smooth="yes"></point>
      <point x="298" y="137" type="line"></point>
    </contour>
  </outline>
</glyph>
<glyph name="afii10066" format="1">
  <advance width="1119"/>
  <unicode hex="0431"/>
  <outline>
    <contour>
      <point x="572" y="74" type="curve" smooth="yes"/>
      <point x="815" y="74"/>
      <point x="885" y="199"/>
      <point x="885" y="445" type="curve" smooth="yes"/>
      <point x="885" y="613"/>
      <point x="777" y="765"/>
      <point x="618" y="765" type="curve" smooth="yes"/>
      <point x="566" y="765"/>
      <point x="406" y="751"/>
      <point x="259" y="603" type="curve"/>
      <point x="254" y="561"/>
      <point x="251" y="521"/>
      <point x="251" y="485" type="curve" smooth="yes"/>
      <point x="251" y="173"/>
      <point x="438" y="74"/>
    </contour>
    <contour>
      <point x="576" y="-20" type="curve" smooth="yes"/>
      <point x="162" y="-20"/>
      <point x="125" y="366"/>
      <point x="125" y="495" type="curve" smooth="yes"/>
      <point x="125" y="522"/>
      <point x="127" y="535"/>
      <point x="127" y="535" type="curve"/>
      <point x="127" y="939"/>
      <point x="296" y="1205"/>
      <point x="904" y="1241" type="curve"/>
      <point x="901" y="1162" type="line"/>
      <point x="633" y="1145"/>
      <point x="321" y="1105"/>
      <point x="241" y="703" type="curve"/>
      <point x="387" y="774"/>
      <point x="430" y="840"/>
      <point x="618" y="840" type="curve" smooth="yes"/>
      <point x="860" y="840"/>
      <point x="969" y="588"/>
      <point x="969" y="430" type="curve" smooth="yes"/>
      <point x="969" y="198"/>
      <point x="825" y="-20"/>
    </contour>
  </outline>
</glyph>
<glyph name="afii10067" format="1">
  <advance width="1081"></advance>
  <unicode hex="0432"></unicode>
  <outline>
    <contour>
      <point x="265" y="611" type="line"></point>
      <point x="627" y="611" type="line" smooth="yes"></point>
      <point x="790" y="611"></point>
      <point x="815" y="713"></point>
      <point x="815" y="804" type="curve" smooth="yes"></point>
      <point x="815" y="914"></point>
      <point x="766" y="994"></point>
      <point x="588" y="994" type="curve" smooth="yes"></point>
      <point x="265" y="994" type="line"></point>
    </contour>
    <contour>
      <point x="265" y="87" type="line"></point>
      <point x="583" y="87" type="line" smooth="yes"></point>
      <point x="817" y="87"></point>
      <point x="850" y="188"></point>
      <point x="850" y="309" type="curve" smooth="yes"></point>
      <point x="850" y="403"></point>
      <point x="849" y="519"></point>
      <point x="632" y="519" type="curve" smooth="yes"></point>
      <point x="265" y="519" type="line"></point>
    </contour>
    <contour>
      <point x="143" y="0" type="line"></point>
      <point x="143" y="1081" type="line"></point>
      <point x="590" y="1081" type="line" smooth="yes"></point>
      <point x="864" y="1081"></point>
      <point x="934" y="935"></point>
      <point x="934" y="809" type="curve" smooth="yes"></point>
      <point x="934" y="683"></point>
      <point x="870" y="609"></point>
      <point x="765" y="576" type="curve"></point>
      <point x="930" y="530"></point>
      <point x="970" y="400"></point>
      <point x="970" y="309" type="curve" smooth="yes"></point>
      <point x="970" y="179"></point>
      <point x="914" y="0"></point>
      <point x="588" y="0" type="curve" smooth="yes"></point>
    </contour>
  </outline>
</glyph>
<glyph name="afii10069" format="1">
  <advance width="1119"></advance>
  <unicode hex="0434"></unicode>
  <outline>
    <contour>
      <point x="219" y="83" type="curve"></point>
      <point x="840" y="83" type="line"></point>
      <point x="840" y="1020" type="line"></point>
      <point x="457" y="1020" type="line"></point>
      <point x="450" y="994"></point>
      <point x="357" y="390"></point>
      <point x="359" y="410" type="curve"></point>
      <point x="322" y="231"></point>
      <point x="261" y="89"></point>
    </contour>
    <contour>
      <point x="-14" y="-275" type="line"></point>
      <point x="-14" y="85" type="line"></point>
      <point x="86" y="85" type="line"></point>
      <point x="168" y="109"></point>
      <point x="189" y="186"></point>
      <point x="226" y="292" type="curve"></point>
      <point x="366" y="1090" type="line"></point>
      <point x="972" y="1090" type="line"></point>
      <point x="972" y="85" type="line"></point>
      <point x="1033" y="85" type="line"></point>
      <point x="1033" y="-275" type="line"></point>
      <point x="929" y="-275" type="line"></point>
      <point x="941" y="7" type="line"></point>
      <point x="70" y="7" type="line"></point>
      <point x="76" y="-275" type="line"></point>
    </contour>
  </outline>
</glyph>
<glyph name="afii10072" format="1">
  <advance width="1339"></advance>
  <unicode hex="0436"></unicode>
  <outline>
    <contour>
      <point x="-15" y="0" type="line"></point>
      <point x="523" y="560" type="line"></point>
      <point x="-13" y="1083" type="line"></point>
      <point x="90" y="1083" type="line"></point>
      <point x="611" y="565" type="line"></point>
      <point x="611" y="1083" type="line"></point>
      <point x="741" y="1083" type="line"></point>
      <point x="741" y="565" type="line"></point>
      <point x="1266" y="1083" type="line"></point>
      <point x="1370" y="1083" type="line"></point>
      <point x="832" y="560" type="line"></point>
      <point x="1373" y="0" type="line"></point>
      <point x="1255" y="0" type="line"></point>
      <point x="741" y="537" type="line"></point>
      <point x="741" y="0" type="line"></point>
      <point x="611" y="0" type="line"></point>
      <point x="611" y="537" type="line"></point>
      <point x="100" y="0" type="line"></point>
    </contour>
  </outline>
</glyph>
<glyph name="afii10074" format="1">
  <advance width="1173"/>
  <unicode hex="0438"/>
  <outline>
    <contour>
      <point x="176" y="0" type="line"/>
      <point x="176" y="1081" type="line"/>
      <point x="276" y="1081" type="line"/>
      <point x="276" y="161" type="line"/>
      <point x="879" y="991" type="line"/>
      <point x="879" y="1081" type="line"/>
      <point x="981" y="1081" type="line"/>
      <point x="981" y="0" type="line"/>
      <point x="879" y="0" type="line"/>
      <point x="879" y="832" type="line"/>
      <point x="275" y="0" type="line"/>
    </contour>
  </outline>
</glyph>
<glyph name="afii10076" format="1">
  <advance width="1030"></advance>
  <unicode hex="043A"></unicode>
  <outline>
    <contour>
      <point x="150" y="0" type="line"></point>
      <point x="150" y="1081" type="line"></point>
      <point x="279" y="1081" type="line"></point>
      <point x="279" y="561" type="line"></point>
      <point x="746" y="1080" type="line"></point>
      <point x="909" y="1082" type="line"></point>
      <point x="417" y="541" type="line"></point>
      <point x="966" y="0" type="line"></point>
      <point x="819" y="0" type="line"></point>
      <point x="279" y="529" type="line"></point>
      <point x="279" y="0" type="line"></point>
    </contour>
  </outline>
</glyph>
<glyph name="afii10077" format="1">
  <advance width="1173"/>
  <unicode hex="043B"/>
  <outline>
    <contour>
      <point x="27" y="-7" type="curve"/>
      <point x="10" y="95" type="line"/>
      <point x="185" y="95"/>
      <point x="251" y="139"/>
      <point x="298" y="501" type="curve"/>
      <point x="363" y="1082" type="line"/>
      <point x="1011" y="1082" type="line"/>
      <point x="1011" y="-1" type="line"/>
      <point x="882" y="-1" type="line"/>
      <point x="882" y="986" type="line"/>
      <point x="474" y="986" type="line"/>
      <point x="412" y="489" type="line"/>
      <point x="363" y="65"/>
      <point x="275" y="-7"/>
    </contour>
  </outline>
</glyph>
<glyph name="afii10078" format="1">
  <advance width="1329"></advance>
  <unicode hex="043C"></unicode>
  <outline>
    <contour>
      <point x="176" y="0" type="line"></point>
      <point x="176" y="1081" type="line"></point>
      <point x="285" y="1081" type="line"></point>
      <point x="666" y="298" type="line"></point>
      <point x="1044" y="1081" type="line"></point>
      <point x="1150" y="1081" type="line"></point>
      <point x="1150" y="0" type="line"></point>
      <point x="1037" y="0" type="line"></point>
      <point x="1037" y="839" type="line"></point>
      <point x="710" y="166" type="line"></point>
      <point x="619" y="166" type="line"></point>
      <point x="289" y="839" type="line"></point>
      <point x="289" y="0" type="line"></point>
    </contour>
  </outline>
</glyph>
<glyph name="afii10079" format="1">
  <advance width="1226"/>
  <unicode hex="043D"/>
  <outline>
    <contour>
      <point x="169" y="0" type="line"/>
      <point x="169" y="1081" type="line"/>
      <point x="291" y="1081" type="line"/>
      <point x="291" y="623" type="line"/>
      <point x="908" y="623" type="line"/>
      <point x="908" y="1081" type="line"/>
      <point x="1030" y="1081" type="line"/>
      <point x="1030" y="0" type="line"/>
      <point x="908" y="0" type="line"/>
      <point x="908" y="526" type="line"/>
      <point x="291" y="526" type="line"/>
      <point x="291" y="0" type="line"/>
    </contour>
  </outline>
</glyph>
<glyph name="afii10081" format="1">
  <advance width="1151"></advance>
  <unicode hex="043F"></unicode>
  <outline>
    <contour>
      <point x="160" y="0" type="line"></point>
      <point x="160" y="1081" type="line"></point>
      <point x="993" y="1081" type="line"></point>
      <point x="993" y="0" type="line"></point>
      <point x="871" y="0" type="line"></point>
      <point x="871" y="987" type="line"></point>
      <point x="282" y="987" type="line"></point>
      <point x="282" y="0" type="line"></point>
    </contour>
  </outline>
</glyph>
<glyph name="afii10084" format="1">
  <advance width="1013"/>
  <unicode hex="0442"/>
  <outline>
    <contour>
      <point x="424" y="0" type="line"/>
      <point x="424" y="978" type="line"/>
      <point x="125" y="978" type="line"/>
      <point x="125" y="1081" type="line"/>
      <point x="864" y="1081" type="line"/>
      <point x="864" y="978" type="line"/>
      <point x="560" y="978" type="line"/>
      <point x="560" y="0" type="line"/>
    </contour>
  </outline>
</glyph>
<glyph name="afii10085" format="1">
  <advance width="1036"></advance>
  <unicode hex="0443"></unicode>
  <outline>
    <contour>
      <point x="168" y="-304" type="curve"></point>
      <point x="168" y="-200" type="line"></point>
      <point x="458" y="-200"></point>
      <point x="501" y="-182"></point>
      <point x="501" y="21" type="curve" smooth="yes"></point>
      <point x="501" y="36" type="line" smooth="yes"></point>
      <point x="500" y="158" type="line"></point>
      <point x="35" y="1089" type="line"></point>
      <point x="159" y="1089" type="line"></point>
      <point x="547" y="299" type="line"></point>
      <point x="863" y="1089" type="line"></point>
      <point x="983" y="1089" type="line"></point>
      <point x="612" y="159" type="line"></point>
      <point x="613" y="34" type="line" smooth="yes"></point>
      <point x="613" y="9" type="line" smooth="yes"></point>
      <point x="613" y="-248"></point>
      <point x="564" y="-304"></point>
    </contour>
  </outline>
</glyph>
